<?xml version="1.0" encoding="UTF-8" standalone="no"?>
<svg
   version="1.0"
   width="1536pt"
   height="1024pt"
   viewBox="0 0 1536 1024"
   preserveAspectRatio="xMidYMid"
   id="svg3"
   sodipodi:docname="LOGO2026.svg"
   inkscape:export-filename="LOGO2026_black.svg"
   inkscape:export-xdpi="96"
   inkscape:export-ydpi="96"
   xmlns:inkscape="http://www.inkscape.org/namespaces/inkscape"
   xmlns:sodipodi="http://sodipodi.sourceforge.net/DTD/sodipodi-0.dtd"
   xmlns="http://www.w3.org/2000/svg"
   xmlns:svg="http://www.w3.org/2000/svg">
  <defs
     id="defs3" />
  <sodipodi:namedview
     id="namedview3"
     pagecolor="#ffffff"
     bordercolor="#000000"
     borderopacity="0.25"
     inkscape:showpageshadow="2"
     inkscape:pageopacity="0.0"
     inkscape:pagecheckerboard="0"
     inkscape:deskcolor="#d1d1d1"
     inkscape:document-units="pt">
    <inkscape:page
       x="0"
       y="0"
       width="1536"
       height="1024"
       id="page2"
       margin="0"
       bleed="0" />
  </sodipodi:namedview>
  <path
     style="fill:#00aceb;fill-opacity:0;stroke-width:0.949995;stroke-dasharray:none"
     d="M 0,512 V 0 h 767.78895 767.78895 v 512 512 H 767.78895 0 Z m 297.47073,207.14262 c 0.29019,-1.45095 0.52762,-15.88656 0.52762,-32.07914 v -29.44106 h -5.38386 c -3.61053,0 -5.71019,0.39321 -6.37463,1.19382 -1.54049,1.85619 -2.03226,16.61137 -1.34461,40.3446 l 0.62873,21.70001 5.18194,0.29727 c 2.85009,0.1635 5.41939,0.37047 5.70958,0.45993 0.29018,0.0895 0.76505,-1.02448 1.05523,-2.47543 z m 72.30449,0.47266 c 0.45307,-1.19166 0.84182,-11.91593 0.86447,-23.84831 l 0.0412,-21.68288 21.376,21.73784 21.37602,21.73784 4.54158,-0.016 4.54159,-0.016 20.6826,-21.67209 20.68261,-21.67209 0.6991,23.161 c 0.38451,12.73856 0.7644,23.20611 0.8442,23.2612 0.0798,0.0551 3.08918,0.3127 6.68753,0.57243 l 6.54246,0.47223 V 690.05856 658.4666 h -8.33436 -8.33437 l -3.60576,4.0099 c -1.98317,2.20543 -12.00352,12.5015 -22.26745,22.88013 l -18.66169,18.87024 -22.39584,-22.88013 -22.39584,-22.88014 h -8.33238 -8.33239 l 0.54851,7.72738 c 0.30168,4.25006 0.5485,18.28767 0.5485,31.19467 v 23.4673 l 5.27618,0.29972 c 2.9019,0.16484 5.57049,0.37291 5.93021,0.46237 0.35971,0.0895 1.02451,-0.81178 1.47733,-2.00277 z m 369.94448,1.32724 36.08907,-0.006 v -4.10334 -4.10336 l -4.43205,-0.53234 c -2.43757,-0.29279 -18.01282,-0.53565 -34.61168,-0.53969 l -30.17971,-0.007 v -27.01386 -27.01401 h -3.25893 c -1.79241,0 -5.02142,0.24159 -7.1756,0.53684 l -3.91667,0.53684 v 31.66438 31.66438 l 5.69827,-0.53817 c 3.13405,-0.29599 21.93833,-0.54087 41.7873,-0.54417 z m 91.1846,0.0696 c 1.11187,-0.42274 4.61497,-3.84171 7.78455,-7.59769 l 5.76292,-6.82907 h 31.42253 31.42245 l 3.42502,4.43198 c 1.88378,2.4376 4.71833,5.68229 6.29918,7.21043 2.85982,2.76472 2.91082,2.77724 10.30935,2.53256 l 7.4352,-0.24588 -7.08923,-8.90172 c -3.89909,-4.89595 -15.2232,-18.85671 -25.1646,-31.02391 l -18.07537,-22.12218 -8.51655,0.007 -8.51662,0.007 -3.90203,4.84717 c -35.85368,44.53814 -44.63865,55.65798 -44.63872,56.50272 -8e-5,0.89169 1.99462,1.3329 8.17582,1.80848 1.01445,0.078 2.75423,-0.20398 3.8661,-0.62671 z m 181.3687,-21.97476 c 0.05,-10.93846 0.3353,-22.16742 0.6331,-24.95324 l 0.5415,-5.06513 17.3059,-0.60541 c 9.5182,-0.33297 18.9204,-0.83111 20.8936,-1.10696 l 3.5878,-0.50156 v -4.1692 -4.16922 h -48.9628 -48.96295 v 5.06513 5.06513 h 20.6826 20.6826 v 26.13125 26.13126 l 5.69825,0.24961 c 4.157,0.1821 5.9837,-0.0794 6.7535,-0.96696 0.774,-0.89228 1.0797,-6.51807 1.1469,-21.1047 z m 154.3947,21.91453 c 20.5717,-0.55818 28.498,-1.06987 31.6801,-2.04513 4.5824,-1.40443 8.9979,-5.286 10.4776,-9.21066 2.3668,-6.27778 -0.1696,-15.3819 -5.0606,-18.16453 -1.361,-0.77433 -2.477,-1.62135 -2.48,-1.88226 0,-0.26091 1.076,-1.27383 2.3975,-2.2509 5.2539,-3.88435 6.6924,-12.10266 3.2955,-18.82687 -2.0456,-4.04915 -5.7908,-7.01849 -10.6642,-8.45477 -5.9961,-1.7672 -80.0099,-3.22323 -90.8494,-1.78722 l -4.221,0.55918 -0.2496,5.69828 -0.2496,5.69826 h 42.9342 42.9341 l 2.2685,2.36772 c 2.6696,2.78655 2.8726,5.141 0.6767,7.8528 -1.53,1.88944 -2.2093,1.98865 -17.5169,2.55792 -8.7589,0.32572 -22.858,0.6229 -31.3316,0.66039 l -15.4065,0.0682 v 5.90932 5.90932 h 30.4463 c 30.1751,0 32.9934,0.23273 34.7543,2.86998 1.1694,1.75134 0.6455,5.34505 -1.1035,7.56852 l -1.7497,2.22432 -41.0929,0.0841 c -22.6011,0.0463 -42.0426,0.34712 -43.2033,0.66854 -1.9696,0.54533 -2.1271,0.99097 -2.3585,6.66935 l -0.248,6.08497 19.2422,-0.0422 c 10.5833,-0.0232 31.5885,-0.3772 46.6784,-0.78664 z M 208.51443,720.172 c 15.35983,-1.0385 20.22688,-4.13516 21.54334,-13.70697 1.45887,-10.60733 -2.005,-17.41095 -10.02538,-19.69152 -3.06828,-0.87245 -12.98246,-1.50956 -33.78985,-2.17145 -16.19611,-0.5152 -30.30957,-1.26449 -31.36325,-1.6651 -1.1335,-0.43096 -2.32169,-1.9583 -2.90984,-3.74041 -0.84282,-2.55379 -0.75909,-3.4929 0.55039,-6.17272 2.38503,-4.88089 4.33012,-5.12515 41.43234,-5.20321 l 32.29019,-0.0679 v -4.14675 -4.14673 l -3.46691,-0.58573 c -1.9068,-0.32216 -17.76698,-0.61388 -35.24485,-0.64828 -40.04011,-0.0788 -43.23725,0.49903 -47.3178,8.55205 -5.57949,11.01122 -1.14775,23.15701 9.2643,25.38999 2.41077,0.51702 17.53513,1.34739 33.60969,1.84526 l 29.22647,0.90522 1.89943,2.08204 c 2.4495,2.685 2.54504,7.69292 0.20353,10.66967 -2.46215,3.13011 -7.90243,3.98531 -25.14863,3.95328 -12.66728,-0.0236 -42.29026,-1.18305 -47.86612,-1.87362 -1.40809,-0.17439 -1.72963,0.35146 -1.9369,3.16765 -0.42212,5.73545 0.92472,6.66275 10.517,7.24094 12.46298,0.75124 47.50696,0.75981 58.53285,0.0143 z m 404.36603,-0.10126 c 8.92649,-0.93111 16.04533,-3.82439 18.8015,-7.64143 2.66036,-3.68435 3.10639,-8.03111 3.12725,-30.47618 0.0236,-25.36604 0.36653,-24.33071 -8.05995,-24.33071 h -5.42692 l -0.0368,20.04947 c -0.0202,11.0272 -0.35701,21.7072 -0.74841,23.73334 -1.54249,7.98491 -6.7846,9.89101 -29.60559,10.76497 -22.36749,0.8566 -37.94818,-1.51455 -40.33648,-6.13861 -0.44223,-0.8562 -1.06693,-11.21562 -1.38822,-23.02092 -0.3213,-11.8053 -0.95505,-22.15715 -1.40832,-23.00412 -0.6793,-1.26927 -1.88142,-1.53994 -6.83918,-1.53994 h -6.01501 l 0.59495,23.00412 c 0.32722,12.65227 0.9117,24.64452 1.29885,26.64944 1.25653,6.5073 6.92179,10.47196 17.07376,11.94852 6.66757,0.96978 49.67657,0.97127 58.96854,0.002 z m 732.87834,0.10631 c 13.0017,-0.61573 14.3342,-0.83069 17.8233,-2.87539 5.0063,-2.93395 8.83,-7.41957 9.6591,-11.33143 0.3711,-1.75106 0.6747,-10.08392 0.6747,-18.51746 v -15.33372 l -2.5403,-3.61439 c -1.4928,-2.12401 -4.1858,-4.46122 -6.5311,-5.66812 -8.4254,-4.33587 -10.447,-4.5049 -59.5188,-4.97621 l -45.7972,-0.43985 v 17.69409 c 0,9.73175 0.2496,24.02287 0.5546,31.75802 l 0.5547,14.06393 35.5343,-0.047 c 19.544,-0.0258 41.858,-0.34645 49.5867,-0.71247 z M 212.73537,591.75904 c 48.5197,-1.38576 107.40181,-3.0843 130.84913,-3.77451 184.21085,-5.42258 272.80173,-7.78683 347.80544,-9.28197 79.35708,-1.58191 120.23088,-2.77973 131.69336,-3.85931 33.82207,-3.18549 62.2491,-15.68887 82.76955,-36.40545 10.8321,-10.93557 18.45442,-23.40404 23.7987,-38.92933 2.4804,-7.2057 2.67712,-8.60507 2.7141,-19.30048 0.0398,-11.51179 0.0353,-11.53775 -2.52825,-15.1889 -6.77355,-9.64654 -19.90133,-14.81263 -46.8168,-18.42356 -19.14548,-2.56852 -18.93413,-2.36685 -5.91938,-5.64758 23.10698,-5.82474 43.42043,-13.92591 55.8444,-22.27118 7.17773,-4.8213 18.18533,-16.0311 22.12635,-22.5327 5.40533,-8.91728 8.42408,-18.14414 8.50155,-25.9854 0.06,-6.02817 -0.23865,-7.39223 -2.7186,-12.42969 -5.4858,-11.14317 -17.93017,-17.55976 -41.11215,-21.19833 -19.7517,-3.10016 -65.50477,-4.44445 -107.21182,-3.15006 -25.9563,0.80557 -89.33165,1.98149 -178.51692,3.31235 l -37.53749,0.56015 -3.54639,9.03721 c -5.01036,12.76782 -12.97302,35.95384 -12.97302,37.77541 0,0.87437 0.81483,1.74964 1.89942,2.0403 3.16482,0.84813 87.57654,0.58297 107.00082,-0.33612 9.98253,-0.47234 32.7756,-1.99339 50.65128,-3.38012 65.94597,-5.11582 67.67795,-5.2174 80.19785,-4.70392 21.6357,0.88734 33.65955,3.69699 40.35795,9.43054 14.37682,12.30606 -3.75,29.63498 -38.24745,36.56391 -10.48343,2.10563 -52.71083,8.59036 -74.67335,11.46735 -9.03339,1.18334 -16.78593,2.5131 -17.22786,2.95503 -1.19671,1.1967 0.49092,2.8224 7.77022,7.48503 18.06874,11.57364 43.07869,21.12231 71.17796,27.17538 8.9814,1.93475 18.14295,4.29231 20.35913,5.23904 4.76925,2.03739 8.21865,5.80473 8.19285,8.94805 -0.0761,9.26633 -14.56433,22.42054 -30.8751,28.03226 -10.82925,3.72582 -19.63155,4.74756 -68.72057,7.97695 -194.85502,12.81881 -390.53558,33.10905 -546.18961,56.63476 -49.55543,7.48985 -87.2528,13.82922 -88.19085,14.8306 -0.63287,0.67559 2.12931,0.78272 10.10346,0.39183 6.03595,-0.29587 50.67238,-1.67177 99.19209,-3.05754 z M 1257.3499,576.10419 c 39.4887,-1.53394 69.085,-15.6856 85.3331,-40.80257 6.8378,-10.5702 9.5948,-17.7939 36.1191,-94.63551 20.1085,-58.25473 18.6901,-53.29411 18.7066,-65.42456 0.013,-9.04825 -0.2066,-10.5811 -2.0505,-14.3512 -1.1355,-2.32152 -3.8187,-5.9383 -5.9628,-8.03731 -10.8429,-10.61526 -29.5744,-15.39171 -66.2308,-16.88847 -36.7517,-1.50065 -342.90563,-0.51587 -344.52968,1.10822 -0.30022,0.30014 0.86228,3.8234 2.5833,7.82947 4.53878,10.56523 5.73638,17.29487 5.39918,30.33929 l -0.2838,10.97444 138.4468,0.61344 c 76.1458,0.33739 145.6647,0.93416 154.4865,1.32617 17.7667,0.78949 22.4575,2.00504 25.4655,6.59893 2.7688,4.22886 1.9368,8.54515 -6.4093,33.24876 -14.8685,44.01024 -24.4747,70.97894 -26.8112,75.27198 -3.2085,5.89497 -9.131,11.91842 -14.1939,14.4358 -11.2042,5.57087 -21.6281,5.97712 -135.9027,5.29664 -52.9243,-0.31515 -96.331,-0.67802 -96.4593,-0.80637 -0.2586,-0.25858 6.6376,-22.03089 23.6864,-74.78172 6.2276,-19.26859 11.0908,-35.26294 10.8071,-35.543 -0.2836,-0.28006 -8.8731,-0.21366 -19.0878,0.14755 -10.2147,0.36121 -27.6894,0.69051 -38.8327,0.73177 -11.14323,0.0412 -21.08898,0.29722 -22.10148,0.56878 -1.01265,0.27156 -2.09835,1.12112 -2.41282,1.88789 -0.3144,0.76678 -6.78023,19.71417 -14.3685,42.10532 -22.60973,66.71625 -25.39065,73.85482 -33.32025,85.53173 -6.90862,10.17348 -20.36183,21.78409 -33.37282,28.80216 -3.5016,1.88873 -6.12901,3.67155 -5.83876,3.96183 1.27883,1.27883 335.35173,1.72519 367.13553,0.49054 z M 235.10635,511.9755 c 16.71492,-0.67333 51.85424,-1.98876 78.08739,-2.92319 26.23314,-0.93442 57.95349,-2.07273 70.48969,-2.52957 126.54055,-4.61135 158.3106,-5.69226 235.52844,-8.01331 72.06159,-2.16607 84.84089,-2.74051 84.84089,-3.81364 0,-0.82423 -22.43725,-12.5564 -62.892,-32.88546 l -32.07915,-16.1202 -70.91178,10.11272 c -132.03707,18.82977 -234.47125,34.69437 -343.92915,53.26635 -10.86855,1.84409 -20.08074,3.3529 -20.47156,3.3529 -0.39083,0 -0.71059,0.43389 -0.71059,0.9642 0,1.02929 3.38606,0.95229 62.04782,-1.4108 z m 296.73207,-75.96545 c 46.41369,-1.41209 56.56059,-1.94702 56.56059,-2.98182 0,-0.55575 -129.63183,-65.53509 -223.51878,-112.04116 -5.2942,-2.62244 -9.19575,-5.03561 -8.79286,-5.4385 0.8131,-0.8131 46.41271,-21.59045 62.53445,-28.49368 l 10.45694,-4.47759 163.86787,-0.20977 c 152.61217,-0.19538 185.98724,-0.57164 262.21574,-2.95623 181.40903,-5.67485 431.34173,-24.5807 552.32773,-41.78015 4.7493,-0.67517 9.205,-1.24611 9.9015,-1.26873 0.9038,-0.0294 0.7832,-0.32214 -0.4221,-1.02307 -2.0634,-1.20005 -952.03353,-1.14164 -993.18715,0.061 l -25.74773,0.75247 -8.44188,3.17214 c -16.2319,6.09936 -124.30526,52.63273 -136.70081,58.85956 -16.88967,8.48442 -24.59626,23.13752 -16.54026,31.44919 1.48648,1.53367 6.56296,4.89149 11.28104,7.46184 10.43725,5.68606 111.51431,56.28198 164.33102,82.2588 l 38.41055,18.89145 20.26051,-0.49508 c 11.14328,-0.2723 38.68491,-1.05563 61.20363,-1.74074 z"
     id="path11" />
  <path
     style="fill:#ffffff;fill-opacity:0.458824;stroke-width:0.949995;stroke-dasharray:none"
     d="m 107.63396,593.88784 c 0.91256,-0.43055 40.853,-6.89349 75.55483,-12.22586 105.76628,-16.25231 240.47401,-32.16776 364.2671,-43.03744 15.78632,-1.38612 37.24979,-3.276 47.69663,-4.19976 32.09776,-2.83822 93.83322,-7.48284 135.07007,-10.1619 51.19236,-3.32584 57.75268,-3.9344 68.69098,-6.37206 22.75103,-5.07015 41.28623,-20.71134 38.9979,-32.90898 -1.10834,-5.9082 -6.54337,-8.34688 -29.17942,-13.09278 -6.73238,-1.41153 -15.01005,-3.31885 -18.39473,-4.2385 -7.34902,-1.99679 -31.39927,-11.33422 -39.05407,-15.16263 -6.16722,-3.08441 -21.06066,-12.68726 -21.06066,-13.57928 0,-0.72724 2.65214,-1.20517 16.03957,-2.89043 15.80924,-1.99012 42.91236,-5.99047 63.31409,-9.34501 26.99602,-4.43879 41.24993,-9.67692 50.36453,-18.50833 9.17137,-8.88636 7.82812,-18.94882 -3.28088,-24.57819 -6.76897,-3.43008 -16.08877,-5.35085 -31.0257,-6.39428 -15.16208,-1.05915 -18.1152,-0.90905 -85.28135,4.33462 -50.43053,3.93711 -58.94871,4.26687 -110.22143,4.26687 -41.84354,0 -48.60435,-0.17053 -49.01331,-1.23629 -0.57836,-1.50719 1.38416,-7.59152 9.5706,-29.67145 l 6.29508,-16.97863 42.34899,-0.56845 c 67.23865,-0.90254 133.04812,-2.08942 172.77607,-3.11602 40.6098,-1.04939 84.97492,-0.10179 101.80627,2.17449 12.04043,1.62836 24.53483,4.81007 31.27523,7.96426 6.86617,3.2131 13.08803,9.05986 15.6,14.65971 2.9652,6.61027 2.69925,15.67315 -0.72787,24.80887 -10.23413,27.28109 -36.08498,44.72583 -83.58435,56.40458 -7.08061,1.74093 -12.87383,3.49984 -12.87383,3.9087 0,0.40887 0.28492,0.74539 0.63315,0.74782 2.71432,0.0191 32.24258,4.36437 36.73043,5.40518 8.22112,1.9066 18.18585,5.99782 22.69477,9.3178 2.6451,1.94762 4.6692,4.41786 6.22403,7.59591 2.20275,4.50228 2.2872,5.14608 1.91647,14.61939 -0.43815,11.19537 -2.88817,19.91462 -9.0261,32.12237 -14.04532,27.9347 -45.79102,50.22303 -81.96585,57.54736 -17.04075,3.45024 -32.15077,4.10692 -146.4666,6.36549 -59.89035,1.18326 -180.58524,4.32524 -290.82275,7.5708 -23.44733,0.69032 -62.57543,1.82024 -86.95136,2.51094 -24.37593,0.69069 -50.01814,1.46774 -56.98269,1.72676 -6.96455,0.25903 -40.01451,1.20688 -73.44435,2.10634 -33.42984,0.89946 -64.96026,1.83133 -70.06761,2.07084 -5.10733,0.23951 -8.90618,0.25624 -8.44188,0.0372 z"
     id="path12" />
  <path
     style="fill:#ffffff;fill-opacity:0.458824;stroke-width:0.949995;stroke-dasharray:none"
     d="m 107.63396,593.88784 c 0.91256,-0.43055 40.853,-6.89349 75.55483,-12.22586 105.76628,-16.25231 240.47401,-32.16776 364.2671,-43.03744 15.78632,-1.38612 37.24979,-3.276 47.69663,-4.19976 32.23352,-2.85022 93.92141,-7.48884 135.07007,-10.15656 21.59008,-1.39972 43.62343,-2.95176 48.96291,-3.44898 25.51432,-2.37592 39.7926,-7.78386 51.25687,-19.41368 5.40368,-5.48176 7.36095,-9.3089 7.3911,-14.45215 0.0435,-7.49046 -3.96397,-9.65251 -27.0294,-14.58103 -7.872,-1.68206 -17.08207,-3.80881 -20.46675,-4.7261 -7.33575,-1.98808 -31.38217,-11.32141 -39.05407,-15.15835 -6.35772,-3.17969 -21.06066,-12.6986 -21.06066,-13.63499 0,-0.71937 2.23879,-1.14882 12.66282,-2.4291 15.09512,-1.854 44.29787,-6.11145 64.15831,-9.35362 29.67413,-4.84425 43.476,-9.77704 52.89705,-18.90534 9.60465,-9.30616 7.65615,-19.6774 -4.7421,-25.24141 -7.13467,-3.20184 -14.43682,-4.59511 -30.00495,-5.725 -14.68552,-1.06584 -17.74042,-0.90998 -84.84087,4.32856 -50.43053,3.93711 -58.94871,4.26687 -110.22143,4.26687 -41.84354,0 -48.60435,-0.17053 -49.01331,-1.23629 -0.57836,-1.50719 1.38416,-7.59152 9.5706,-29.67145 l 6.29507,-16.97863 42.349,-0.56845 c 67.23865,-0.90254 133.04812,-2.08942 172.77607,-3.11602 40.6098,-1.04939 84.97492,-0.10179 101.80627,2.17449 12.04043,1.62836 24.53483,4.81007 31.27523,7.96426 6.86617,3.2131 13.08803,9.05986 15.6,14.65971 2.9652,6.61027 2.69925,15.67315 -0.72787,24.80887 -10.23413,27.28109 -36.08498,44.72583 -83.58435,56.40458 -7.08061,1.74093 -12.87383,3.49984 -12.87383,3.9087 0,0.40887 0.28492,0.74539 0.63315,0.74782 2.71432,0.0191 32.24258,4.36437 36.73043,5.40518 8.22112,1.9066 18.18585,5.99782 22.69477,9.3178 2.6451,1.94762 4.6692,4.41786 6.22403,7.59591 2.20275,4.50228 2.2872,5.14608 1.91647,14.61939 -0.43815,11.19537 -2.88817,19.91462 -9.0261,32.12237 -14.04532,27.9347 -45.79102,50.22303 -81.96585,57.54736 -17.04075,3.45024 -32.15077,4.10692 -146.4666,6.36549 -59.89035,1.18326 -180.58524,4.32524 -290.82275,7.5708 -23.44733,0.69032 -62.57543,1.82024 -86.95136,2.51094 -24.37593,0.69069 -50.01814,1.46774 -56.98269,1.72676 -6.96455,0.25903 -40.01451,1.20688 -73.44435,2.10634 -33.42984,0.89946 -64.96026,1.83133 -70.06761,2.07084 -5.10733,0.23951 -8.90618,0.25624 -8.44188,0.0372 z"
     id="path13" />
  <path
     style="fill:#14aceb;fill-opacity:0.458824;stroke-width:0.949995;stroke-dasharray:none"
     d="m 109.74443,593.49946 c 4.63264,-1.17119 74.7036,-12.15187 110.59427,-17.33101 98.54214,-14.21998 217.18906,-27.88027 322.68528,-37.15205 18.22387,-1.60165 41.6817,-3.66891 52.12854,-4.59393 30.22606,-2.67637 92.95274,-7.42016 128.73866,-9.73602 18.10783,-1.17185 38.43162,-2.53566 45.16407,-3.03069 33.37807,-2.45434 48.17355,-7.24566 60.73897,-19.6695 5.9637,-5.8965 8.00813,-9.71938 8.03925,-15.03285 0.0427,-7.36656 -4.16295,-9.72037 -25.33785,-14.17958 -6.94515,-1.46257 -16.09334,-3.56504 -20.32935,-4.67216 -8.4429,-2.20664 -32.27332,-11.30777 -40.88302,-15.61374 -6.35772,-3.17969 -21.06066,-12.6986 -21.06066,-13.63499 0,-0.71937 2.23879,-1.14882 12.66282,-2.4291 15.09511,-1.854 44.29786,-6.11145 64.15831,-9.35362 29.67413,-4.84425 43.476,-9.77704 52.89705,-18.90534 9.60465,-9.30616 7.65615,-19.6774 -4.7421,-25.24141 -7.13467,-3.20184 -14.43682,-4.59511 -30.00495,-5.725 -14.68552,-1.06584 -17.74042,-0.90998 -84.84087,4.32856 -50.43053,3.93711 -58.94871,4.26687 -110.22143,4.26687 -41.84354,0 -48.60435,-0.17053 -49.01331,-1.23629 -0.57209,-1.49084 1.31141,-7.34542 9.54556,-29.67102 l 6.26192,-16.97821 42.3781,-0.56887 c 67.27169,-0.90305 133.07316,-2.08974 172.80516,-3.11645 40.6098,-1.04939 84.97492,-0.10179 101.80627,2.17449 12.04043,1.62836 24.53483,4.81007 31.27523,7.96426 6.86617,3.2131 13.08803,9.05986 15.6,14.65971 2.9652,6.61027 2.69925,15.67315 -0.72787,24.80887 -10.23413,27.28109 -36.08498,44.72583 -83.58435,56.40458 -7.08061,1.74093 -12.87383,3.49984 -12.87383,3.9087 0,0.40887 0.28492,0.74539 0.63315,0.74782 2.71432,0.0191 32.24258,4.36437 36.73043,5.40518 8.22112,1.9066 18.18585,5.99782 22.69477,9.3178 2.6451,1.94762 4.6692,4.41786 6.22403,7.59591 2.20275,4.50228 2.2872,5.14608 1.91647,14.61939 -0.43747,11.17799 -2.88825,19.91474 -8.99137,32.05331 -14.097,28.03755 -45.74745,50.27623 -82.00058,57.61642 -17.03287,3.44864 -32.25022,4.11063 -146.04451,6.35328 -61.01241,1.20243 -160.84622,3.77146 -262.12035,6.74517 -23.67948,0.69529 -75.34378,2.21213 -114.80957,3.37074 -39.46579,1.1586 -98.91772,2.85813 -132.11542,3.77673 -33.19769,0.9186 -64.53816,1.85712 -69.64551,2.0856 -6.28202,0.28102 -8.33023,0.17376 -6.33141,-0.33156 z"
     id="path14" />
  <path
     style="fill:#14aceb;fill-opacity:0.458824;stroke-width:0.949995;stroke-dasharray:none"
     d="m 115.23166,593.0196 c 2.37786,-0.87671 81.42079,-13.06549 119.87469,-18.48524 150.75264,-21.24727 315.84801,-37.80831 501.44765,-50.30118 51.83062,-3.48877 60.13582,-4.54536 73.25287,-9.31921 23.93745,-8.71188 36.74288,-30.03462 22.25063,-37.0502 -2.05403,-0.99434 -12.03638,-3.71946 -22.18298,-6.05582 -19.99702,-4.60454 -27.30832,-6.88869 -45.53842,-14.22682 -15.06571,-6.06438 -35.24854,-17.92866 -32.32079,-18.99946 0.63907,-0.23373 11.03893,-1.76992 23.11079,-3.41376 49.29488,-6.71249 75.7656,-11.62319 88.34077,-16.38846 10.47578,-3.96974 21.2037,-13.19343 22.33043,-19.19944 0.99712,-5.3151 -0.15413,-8.86372 -4.08765,-12.60002 -11.8032,-11.21141 -36.8874,-12.58651 -115.86959,-6.35186 -38.52819,3.04132 -51.27172,3.70811 -82.30832,4.30669 -20.1972,0.38954 -46.88409,0.49255 -59.30421,0.22892 -20.94462,-0.44456 -22.58203,-0.58872 -22.58203,-1.98813 0,-1.40286 4.82977,-15.60047 12.21746,-35.91448 l 3.11454,-8.5641 15.33812,-0.49314 c 8.43597,-0.27124 44.58924,-0.90336 80.3406,-1.40473 35.75136,-0.50137 78.86826,-1.26094 95.81533,-1.68796 61.23592,-1.54296 108.18555,-0.7473 127.8945,2.16741 10.69725,1.582 22.75658,4.79786 28.95443,7.7213 6.96554,3.28555 14.01577,10.60978 15.7125,16.32318 2.5281,8.5129 1.2324,17.34337 -4.16798,28.4064 -11.2095,22.96336 -33.55327,37.19533 -77.39287,49.29565 -8.4564,2.33409 -15.52418,4.39266 -15.70613,4.5746 -1.07017,1.07019 1.38743,1.96441 6.7794,2.46672 3.37905,0.31479 12.4119,1.6442 20.07293,2.95425 21.76687,3.72217 33.1431,8.85368 37.9893,17.13597 l 2.62027,4.47811 -0.31755,10.97444 c -0.27802,9.6073 -0.64912,11.94587 -2.97922,18.77229 -5.16615,15.13528 -11.41665,25.03892 -23.3493,36.99558 -19.85678,19.89671 -47.03288,32.46337 -77.2776,35.73432 -12.66473,1.36967 -45.42585,2.5202 -111.01074,3.89855 -98.58231,2.07183 -157.64537,3.58754 -295.88788,7.59323 -39.69794,1.15028 -112.06595,3.23145 -160.81781,4.62483 -48.75186,1.39337 -100.22142,2.91651 -114.37683,3.38475 -26.4932,0.87637 -31.43474,0.94342 -29.97931,0.40682 z"
     id="path15" />
  <path
     style="fill:#000000;fill-opacity:1;stroke-width:0.949995;stroke-dasharray:none"
     d="m 431.38005,427.95838 c -10.21468,-5.07924 -53.33158,-26.48958 -95.81534,-47.57851 -91.56657,-45.45367 -97.6053,-48.66491 -100.23087,-53.30036 -2.3988,-4.23507 -2.38233,-6.52686 0.0846,-11.7753 3.05544,-6.50055 10.86565,-13.35224 20.15505,-17.68148 10.70275,-4.98792 115.22126,-49.97317 127.35863,-54.81574 5.39057,-2.15073 12.79259,-4.67553 16.44894,-5.61067 6.6054,-1.68938 9.31738,-1.70363 424.1116,-2.2293 392.33914,-0.49721 597.39314,0.0337 586.72334,1.51895 -68.3817,9.5192 -183.327,20.62156 -295.4658,28.53851 -66.34,4.68358 -88.9217,6.0433 -154.90844,9.32754 -122.39325,6.09165 -214.94024,7.81051 -401.41141,7.4553 l -129.58285,-0.24685 -12.17739,5.29566 c -20.41469,8.87787 -60.57304,27.21898 -62.19754,28.40685 -1.35808,0.99305 3.16176,3.42632 40.2213,21.6532 73.62564,36.21109 191.59468,95.29827 191.59468,95.96407 0,0.58617 -119.36457,4.58068 -131.27123,4.39296 -4.6796,-0.0738 -6.4787,-0.78275 -23.63726,-9.31483 z"
     id="path17" />
  <path
     style="fill:#000000;fill-opacity:1;stroke-width:0.949995;stroke-dasharray:none"
     d="M 243.54823,501.90966 C 344.36644,484.9438 407.95675,475.17115 537.53139,456.72991 l 70.69545,-10.06147 8.23612,3.80337 c 4.52988,2.09185 25.88247,12.80267 47.45021,23.80181 38.58498,19.6776 39.16056,20.00837 35.87799,20.61785 -1.83485,0.34067 -36.38605,1.5818 -76.78044,2.75805 -69.54714,2.02515 -96.15866,2.90614 -178.54576,5.91084 -19.26859,0.70274 -45.67057,1.65127 -58.67106,2.10785 -57.45439,2.01782 -98.40895,3.51237 -138.86892,5.06775 -23.91163,0.91922 -49.55383,1.85047 -56.98269,2.06945 l -13.507,0.39812 z"
     id="path18" />
  <path
     style="fill:#000000;fill-opacity:1;stroke-width:0.949995;stroke-dasharray:none"
     d="m 992.34292,575.75845 c -54.5556,-0.31564 -99.37282,-0.63972 -99.5937,-0.72017 -0.22095,-0.0805 2.43825,-1.76881 5.90933,-3.7519 9.3609,-5.34815 15.65655,-10.20858 23.19473,-17.90706 13.2486,-13.53045 16.91085,-21.87365 39.84082,-90.76431 8.73158,-26.23315 16.25543,-47.97573 16.71975,-48.31684 0.46432,-0.34112 9.20168,-0.65071 19.4163,-0.68798 10.21465,-0.0373 28.06925,-0.37449 39.67685,-0.7494 11.6076,-0.3749 21.2265,-0.57668 21.3753,-0.4484 0.1488,0.12828 -4.1011,13.66068 -9.4441,30.07201 -14.4628,44.42223 -25.8943,80.3167 -25.6523,80.54712 0.1178,0.11212 43.331,0.47068 96.0294,0.7968 117.965,0.73001 127.7123,0.30147 139.538,-6.13487 5.1982,-2.82927 10.4808,-8.78615 13.8675,-15.63799 1.4276,-2.88796 9.54,-25.38473 18.0275,-49.9928 14.3558,-41.6217 15.4363,-45.17349 15.4933,-50.92959 0.058,-5.93179 -0.051,-6.28776 -2.6474,-8.60986 -5.9573,-5.32723 -2.6821,-5.13736 -101.9706,-5.91146 -49.6804,-0.38733 -118.3054,-0.7298 -152.4997,-0.76104 l -62.17173,-0.0568 0.10043,-12.45178 c 0.11227,-13.91034 -0.85268,-18.86563 -5.73315,-29.44064 l -2.77575,-6.01442 5.1723,-0.52615 c 9.25335,-0.94128 227.3866,-2.32804 283.3322,-1.80125 65.0057,0.61209 83.5553,1.87973 101.3026,6.92276 21.2884,6.0493 31.6065,20.88115 27.9138,40.12503 -1.4774,7.69894 -2.4776,10.76428 -20.3215,62.27961 -27.1285,78.31993 -27.6738,79.7333 -35.0315,90.79122 -11.5109,17.29972 -29.8582,29.49989 -53.3467,35.47319 -18.3174,4.65825 -19.164,4.69589 -111.2669,4.94773 -46.8947,0.12822 -129.8994,-0.0251 -184.45508,-0.34075 z"
     id="path19" />
  <path
     style="fill:#000000;fill-opacity:1;stroke-width:0.949995;stroke-dasharray:none"
     d="M 1260.7947,689.20032 V 658.3083 l 45.7973,0.3643 c 40.6084,0.32301 46.3232,0.53145 50.4402,1.83967 6.869,2.18273 11.5701,5.21258 14.159,9.12558 2.2959,3.47003 2.3024,3.52369 2.235,18.31442 -0.042,9.15807 -0.4736,16.26522 -1.1287,18.57405 -1.9921,7.02138 -8.9497,11.51646 -19.7473,12.75809 -3.8031,0.43731 -26.0037,0.79799 -49.335,0.80152 l -42.4205,0.007 z m 88.7024,18.33473 c 1.6596,-0.52093 3.9389,-1.93213 5.0652,-3.136 1.9838,-2.12056 2.0453,-2.57541 1.9685,-14.5837 -0.089,-13.94431 -0.5762,-15.58095 -5.2649,-17.68913 -2.6825,-1.20615 -7.822,-1.43158 -38.3426,-1.6818 l -35.2448,-0.28895 v 17.84834 c 0,11.30358 0.3385,18.4809 0.9232,19.57345 0.9118,1.70367 1.3399,1.72003 34.4007,1.31504 21.2319,-0.26009 34.5811,-0.75654 36.4947,-1.35725 z"
     id="path20" />
  <path
     style="fill:#000000;fill-opacity:1;stroke-width:0.949995;stroke-dasharray:none"
     d="m 1101.2432,715.02721 v -5.90932 l 43.6867,-0.006 43.6868,-0.006 1.8994,-2.79008 c 2.3242,-3.4141 2.4208,-6.49731 0.2864,-9.13455 l -1.6131,-1.99294 -31.3103,-0.24075 -31.3103,-0.24076 v -4.93443 -4.93443 l 28.9135,-0.58943 c 15.9024,-0.32418 30.3151,-0.94793 32.0282,-1.3861 1.9529,-0.49948 3.2913,-1.41947 3.5878,-2.46622 0.2601,-0.91824 0.6787,-2.39819 0.93,-3.28875 0.2997,-1.06159 -0.4572,-2.66057 -2.1978,-4.64304 l -2.655,-3.02382 h -42.9662 -42.9661 l 0.013,-4.00989 c 0.022,-6.93872 -1.8635,-6.5114 29.9925,-6.79606 34.213,-0.30573 60.7483,0.79696 66.3106,2.75557 7.3863,2.60089 11.6253,9.52983 10.4844,17.13782 -0.5739,3.82719 -3.1338,7.23089 -7.6287,10.14351 -0.9174,0.59449 -1.2882,1.2608 -0.8238,1.48068 8.1415,3.85549 11.6747,11.78017 8.5676,19.21655 -1.4915,3.56965 -6.4373,7.85468 -10.444,9.04871 -4.3015,1.28191 -36.0373,2.41473 -69.2465,2.47179 l -27.225,0.0468 z"
     id="path21" />
  <path
     style="fill:#000000;fill-opacity:1;stroke-width:0.949995;stroke-dasharray:none"
     d="m 1004.3726,720.31415 -4.43195,-0.31005 v -15.86292 c 0,-8.7246 -0.24833,-20.48117 -0.55185,-26.12571 l -0.55177,-10.26279 H 978.7062 958.57545 v -4.22094 -4.22094 h 48.11875 48.1186 v 3.27829 c 0,2.68262 -0.345,3.37292 -1.8993,3.79906 -1.0447,0.28641 -10.257,0.75572 -20.4716,1.0429 -15.4487,0.43433 -18.7496,0.74538 -19.6274,1.84952 -0.7909,0.99487 -1.0552,7.63095 -1.0552,26.49166 0,23.46269 -0.1,25.15373 -1.4773,25.00813 -0.8126,-0.0859 -3.4718,-0.29568 -5.9094,-0.46621 z"
     id="path22" />
  <path
     style="fill:#000000;fill-opacity:1;stroke-width:0.949995;stroke-dasharray:none"
     d="m 821.60677,720.2035 c -2.28255,-0.52449 -2.07442,-0.83916 12.66278,-19.14127 8.24092,-10.2344 19.16227,-23.80098 24.26962,-30.14795 l 9.28605,-11.53994 8.02365,-0.0318 8.02365,-0.0318 24.66203,30.17972 c 27.28883,33.39421 26.1282,31.1798 16.43685,31.36185 -4.98757,0.0937 -5.5782,-0.35706 -13.44105,-10.25715 l -3.85522,-4.85409 H 875.8317 843.98827 l -6.46192,7.5977 c -6.31943,7.43014 -6.5406,7.59549 -10.03043,7.49781 -1.96267,-0.0549 -4.6128,-0.33985 -5.88915,-0.63314 z m 78.66368,-23.53738 c -0.088,-0.99587 -23.05118,-28.33249 -24.07973,-28.66594 -0.5064,-0.16414 -3.35122,2.65712 -6.32197,6.26949 -2.97075,3.61235 -8.53965,10.05961 -12.37538,14.32722 -3.83572,4.26762 -6.97402,7.97149 -6.97402,8.23083 0,0.25935 11.20665,0.47154 24.9036,0.47154 13.69695,0 24.87832,-0.28491 24.8475,-0.63314 z"
     id="path23" />
  <path
     style="fill:#000000;fill-opacity:1;stroke-width:0.949995;stroke-dasharray:none"
     d="m 693.50041,689.83373 v -31.36712 h 5.90931 5.90932 v 27.01402 27.01401 h 35.03381 35.03382 v 3.79884 3.79885 l -27.64718,0.003 c -15.20594,10e-4 -33.63034,0.25097 -40.94312,0.55426 l -13.29596,0.55145 z"
     id="path24" />
  <path
     style="fill:#000000;fill-opacity:1;stroke-width:0.949995;stroke-dasharray:none"
     d="m 564.76174,720.10981 c -9.93557,-0.52461 -13.74234,-1.07885 -17.67512,-2.57337 -10.02202,-3.80853 -10.60517,-5.80556 -10.60517,-36.3183 V 659.3108 h 5.48722 c 3.01797,0 5.54086,0.095 5.60642,0.21104 0.0655,0.11608 0.35047,10.59462 0.63314,23.28564 l 0.51395,23.07459 2.62487,2.3441 c 4.08194,3.64533 11.22505,4.66968 32.40892,4.64756 19.13064,-0.0199 28.98099,-1.09164 33.33342,-3.6265 4.17908,-2.4339 4.77372,-5.75051 5.28279,-29.46487 l 0.45759,-21.31575 h 5.90193 5.90194 l -0.39516,24.2704 c -0.42323,25.99486 -0.59258,27.04334 -5.03871,31.19467 -2.78992,2.60494 -6.91321,4.15277 -13.78675,5.1754 -8.39466,1.24893 -35.73716,1.79023 -50.65128,1.00273 z"
     id="path25" />
  <path
     style="fill:#000000;fill-opacity:1;stroke-width:0.949995;stroke-dasharray:none"
     d="M 361.94559,720.31415 357.5136,720.0041 V 689.65745 659.3108 h 7.38766 7.38765 l 22.27194,23.00412 c 12.24956,12.65227 22.53198,23.10776 22.84981,23.23442 0.31784,0.12666 10.61884,-10.20881 22.89111,-22.96772 l 22.31324,-23.19802 7.38664,-0.0364 7.38664,-0.0364 v 30.91839 30.91838 L 474.7502,720.62 c -1.45094,-0.29019 -4.11013,-0.52762 -5.90931,-0.52762 h -3.27123 l -0.005,-15.40643 c -0.005,-16.54658 -0.77861,-31.91902 -1.60028,-31.78653 -0.27821,0.0448 -9.81299,9.91346 -21.18843,21.93023 l -20.6826,21.84867 -4.25776,-0.19239 -4.25776,-0.19239 -21.41682,-21.94889 c -11.77925,-12.07189 -21.73465,-22.07551 -22.12311,-22.23028 -0.38847,-0.15477 -0.7063,10.76691 -0.7063,24.2704 0,22.87937 -0.10064,24.54116 -1.47733,24.39564 -0.81253,-0.0859 -3.47173,-0.29568 -5.90932,-0.46621 z"
     id="path26" />
  <path
     style="fill:#000000;fill-opacity:1;stroke-width:0.949995;stroke-dasharray:none"
     d="m 290.18961,720.31415 -4.43198,-0.31005 v -30.25633 c 0,-34.16506 -0.66791,-31.28116 7.24464,-31.28116 h 4.57398 v 31.23496 c 0,29.24427 -0.0942,31.225 -1.47732,31.07879 -0.81253,-0.0859 -3.47172,-0.29568 -5.90932,-0.46621 z"
     id="path27" />
  <path
     style="fill:#000000;fill-opacity:1;stroke-width:0.949995;stroke-dasharray:none"
     d="m 148.01667,719.46798 c -6.38933,-0.33353 -7.39737,-1.09567 -7.68299,-5.8087 -0.17201,-2.83826 0.0267,-3.24647 1.48989,-3.06043 4.77021,0.60654 37.13497,1.85279 48.63664,1.87283 20.83552,0.0363 25.66062,-1.60654 26.66276,-9.07806 0.34935,-2.60463 0.0311,-4.14752 -1.29945,-6.30046 l -1.76211,-2.85115 -31.76794,-0.95342 c -30.52142,-0.91601 -31.92038,-1.02993 -35.65295,-2.90336 -5.33839,-2.67942 -7.16088,-5.47462 -7.60902,-11.67017 -0.70941,-9.80736 3.03105,-16.36508 10.57774,-18.5448 6.76928,-1.95518 71.2474,-2.07541 74.30043,-0.13854 0.4728,0.29995 1.11371,2.0649 1.42421,3.92212 l 0.56456,3.37674 -31.3316,-0.25894 c -40.52596,-0.33494 -42.70078,0.0959 -43.66496,8.65003 -0.57122,5.06787 1.15527,7.73554 5.45115,8.42278 1.75917,0.28142 15.92463,0.8762 31.47879,1.32173 15.55416,0.44552 29.74074,1.22862 31.52571,1.74022 1.78499,0.51159 4.63412,2.20234 6.33141,3.75721 3.07566,2.81757 3.08694,2.85341 3.36474,10.7017 0.25183,7.11474 0.0889,8.15272 -1.68838,10.75589 -2.50694,3.67191 -6.45033,5.67246 -13.36365,6.77961 -5.01556,0.80323 -52.06661,0.99374 -65.98498,0.26717 z"
     id="path28" />
  <path
     style="fill:#48bef0;fill-opacity:1;stroke-width:1.09207;stroke-dasharray:none"
     d="m 124.30054,591.99998 c 4.01982,-0.85536 45.02113,-7.26052 80.46325,-12.56986 145.57841,-21.8081 310.87162,-39.01091 513.85038,-53.47875 30.15656,-2.14948 58.97878,-4.35541 64.0493,-4.90206 30.1758,-3.25314 50.97218,-14.84543 55.27073,-30.80895 1.36275,-5.06107 -0.5094,-10.07375 -4.5411,-12.15862 -1.5387,-0.79573 -12.59985,-3.93017 -24.58013,-6.96542 -22.77255,-5.76949 -38.98342,-11.28657 -53.9658,-18.36625 -9.78957,-4.62588 -23.69149,-13.25711 -22.16155,-13.75933 0.53374,-0.17521 16.25494,-2.53168 34.936,-5.23662 62.51048,-9.05123 78.07718,-13.00505 89.81603,-22.81256 6.51255,-5.44109 8.6841,-9.18553 8.6841,-14.97425 0,-4.50543 -0.35475,-5.28396 -4.12575,-9.05496 -10.4658,-10.46585 -37.26668,-12.5965 -99.71183,-7.92706 -10.94175,0.81818 -28.84646,2.14024 -39.78822,2.93789 -35.31459,2.57442 -132.85908,3.86843 -139.46625,1.85012 -0.88974,-0.2718 -0.92417,-1.14211 -0.14072,-3.55771 2.73196,-8.42338 13.67324,-39.35234 14.25289,-40.29022 0.63134,-1.02154 109.08532,-3.32561 226.76553,-4.81757 65.82382,-0.83452 94.37325,1.13045 114.41625,7.87494 8.84985,2.978 13.2057,5.85254 18.25245,12.04533 7.72215,9.47576 6.79387,22.76321 -2.72498,39.00466 -11.62162,19.82926 -32.87377,32.6168 -73.40527,44.16832 -15.01853,4.28029 -18.25815,5.56333 -17.06355,6.75791 0.29025,0.29025 6.59325,1.40637 14.00677,2.48025 30.3009,4.38932 43.74293,9.29014 50.0199,18.23676 l 3.54585,5.05385 -0.48907,9.91494 c -0.62813,12.73271 -2.30918,19.46027 -7.60718,30.44317 -13.61505,28.22465 -44.2578,50.81194 -80.02747,58.9897 -14.15843,3.23693 -39.00195,4.53461 -121.79082,6.36167 -84.52649,1.86541 -129.35735,2.99495 -232.90668,5.86826 -105.88926,2.93824 -325.55273,9.20375 -352.75659,10.06177 -9.75264,0.3076 -13.64751,0.17773 -11.07647,-0.36935 z"
     id="path29" />
  <path
     style="fill:#48bef0;fill-opacity:1;stroke-width:1.09207;stroke-dasharray:none"
     d="m 1101.9397,714.74228 v -5.32756 l 43.9127,-0.2525 43.9126,-0.25249 1.8282,-3.74373 c 1.7122,-3.50647 1.7286,-3.95235 0.2583,-7.03572 l -1.5699,-3.292 -22.0933,-0.005 c -12.1514,-0.003 -26.3512,-0.28698 -31.5551,-0.63159 l -9.4619,-0.62657 v -4.0905 -4.0905 l 28.1168,-0.71166 c 28.6269,-0.72457 34.614,-1.32276 36.0597,-3.60282 1.5471,-2.44013 0.8336,-6.48333 -1.6691,-9.45756 l -2.5123,-2.98578 h -42.6134 -42.6133 v -3.77796 c 0,-2.66035 0.5025,-4.00371 1.6983,-4.54112 2.8522,-1.2817 50.162,-1.6365 71.0955,-0.53317 17.3394,0.91389 20.2553,1.3065 24.1203,3.24763 6.1883,3.10794 8.3792,6.48421 8.3792,12.91279 0,4.88394 -0.285,5.51644 -4.367,9.69099 -4.1421,4.23597 -4.267,4.522 -2.4261,5.55254 5.7366,3.21139 9.2473,10.21433 7.8706,15.69968 -0.7959,3.17123 -5.0242,8.06274 -8.5419,9.88182 -4.2236,2.18412 -25.168,3.25561 -64.1059,3.27959 l -33.723,0.0208 z"
     id="path30" />
  <path
     style="fill:#000000;fill-opacity:0;stroke-width:1.09207;stroke-dasharray:none"
     d="m 1261.0927,689.50084 v -30.56901 l 33.7229,0.067 c 18.5476,0.0368 40.0551,0.39862 47.7944,0.80397 12.4168,0.65033 14.6522,1.03452 19.011,3.26726 2.7168,1.39164 6.3548,4.14208 8.0845,6.11207 l 3.1448,3.58181 -0.3208,16.61724 c -0.3888,20.13423 -1.0281,21.81086 -10.0355,26.3205 l -5.8126,2.91015 -28.1429,0.64456 c -15.4786,0.35451 -36.986,0.68256 -47.7943,0.72902 l -19.6515,0.0845 z m 91.0295,17.42721 c 1.6617,-0.98162 3.5302,-3.01351 4.1524,-4.51533 1.4187,-3.42505 0.7692,-24.64411 -0.8451,-27.60909 -0.6233,-1.14478 -2.4968,-2.55677 -4.1634,-3.13774 -1.8162,-0.63314 -17.1809,-1.31986 -38.353,-1.71417 l -35.3229,-0.65786 v 18.88601 c 0,13.78457 0.3277,19.22903 1.213,20.1559 0.971,1.01643 8.1074,1.18078 35.7554,0.82346 31.3082,-0.40463 34.8251,-0.61352 37.5636,-2.23118 z"
     id="path31" />
  <path
     style="fill:#000000;fill-opacity:0;stroke-width:1.09207;stroke-dasharray:none"
     d="m 448.34537,435.36672 c -5.68572,-2.25567 -175.02304,-86.46101 -192.06251,-95.50577 -16.82102,-8.92879 -20.89126,-12.0168 -21.90144,-16.61613 -1.1823,-5.38296 5.43511,-14.95491 14.74093,-21.32246 5.99719,-4.10361 129.31687,-57.27386 144.65769,-62.3703 l 9.43966,-3.13599 319.27625,-0.708 c 321.67845,-0.71332 665.88765,-0.30868 673.97375,0.79231 4.1161,0.56044 3.8373,0.66952 -4.8523,1.8986 -47.1677,6.67157 -171.6475,18.48444 -268.8131,25.50977 -191.0271,13.8118 -309.2133,17.47515 -564.7987,17.50677 l -130.52479,0.0161 -25.71678,11.46218 c -36.33135,16.19319 -47.55178,21.64563 -47.55178,23.10727 0,0.72164 49.88257,26.11996 115.1099,58.60962 63.31045,31.53486 114.93979,57.50622 114.73188,57.71415 -0.52234,0.52233 -75.23743,3.23406 -106.59532,3.8688 -20.61191,0.41721 -26.39101,0.25306 -29.11334,-0.82696 z"
     id="path32" />
  <path
     style="fill:#000000;fill-opacity:0;stroke-width:1.09207;stroke-dasharray:none"
     d="m 448.34537,435.36672 c -5.68572,-2.25567 -175.02304,-86.46101 -192.06251,-95.50577 -16.82102,-8.92879 -20.89126,-12.0168 -21.90144,-16.61613 -1.1823,-5.38296 5.43511,-14.95491 14.74093,-21.32246 5.99719,-4.10361 129.31687,-57.27386 144.65769,-62.3703 l 9.43966,-3.13599 319.27625,-0.708 c 321.67845,-0.71332 665.88765,-0.30868 673.97375,0.79231 4.1161,0.56044 3.8373,0.66952 -4.8523,1.8986 -47.1677,6.67157 -171.6475,18.48444 -268.8131,25.50977 -191.0271,13.8118 -309.2133,17.47515 -564.7987,17.50677 l -130.52479,0.0161 -25.71678,11.46218 c -36.33135,16.19319 -47.55178,21.64563 -47.55178,23.10727 0,0.72164 49.88257,26.11996 115.1099,58.60962 63.31045,31.53486 114.93979,57.50622 114.73188,57.71415 -0.52234,0.52233 -75.23743,3.23406 -106.59532,3.8688 -20.61191,0.41721 -26.39101,0.25306 -29.11334,-0.82696 z"
     id="path33" />
  <path
     style="fill:#000000;fill-opacity:0;stroke-width:1.09207;stroke-dasharray:none"
     d="m 448.34537,435.36672 c -5.68572,-2.25567 -175.02304,-86.46101 -192.06251,-95.50577 -16.82102,-8.92879 -20.89126,-12.0168 -21.90144,-16.61613 -1.1823,-5.38296 5.43511,-14.95491 14.74093,-21.32246 5.99719,-4.10361 129.31687,-57.27386 144.65769,-62.3703 l 9.43966,-3.13599 319.27625,-0.708 c 321.67845,-0.71332 665.88765,-0.30868 673.97375,0.79231 4.1161,0.56044 3.8373,0.66952 -4.8523,1.8986 -47.1677,6.67157 -171.6475,18.48444 -268.8131,25.50977 -191.0271,13.8118 -309.2133,17.47515 -564.7987,17.50677 l -130.52479,0.0161 -25.71678,11.46218 c -36.33135,16.19319 -47.55178,21.64563 -47.55178,23.10727 0,0.72164 49.88257,26.11996 115.1099,58.60962 63.31045,31.53486 114.93979,57.50622 114.73188,57.71415 -0.52234,0.52233 -75.23743,3.23406 -106.59532,3.8688 -20.61191,0.41721 -26.39101,0.25306 -29.11334,-0.82696 z"
     id="path34" />
  <path
     style="fill:#ffffff;fill-opacity:1;stroke-width:1.09207;stroke-dasharray:none"
     d="m 448.34537,435.36672 c -5.68572,-2.25567 -175.02304,-86.46101 -192.06251,-95.50577 -16.82102,-8.92879 -20.89126,-12.0168 -21.90144,-16.61613 -1.1823,-5.38296 5.43511,-14.95491 14.74093,-21.32246 5.99719,-4.10361 129.31687,-57.27386 144.65769,-62.3703 l 9.43966,-3.13599 319.27625,-0.708 c 321.67845,-0.71332 665.88765,-0.30868 673.97375,0.79231 4.1161,0.56044 3.8373,0.66952 -4.8523,1.8986 -47.1677,6.67157 -171.6475,18.48444 -268.8131,25.50977 -191.0271,13.8118 -309.2133,17.47515 -564.7987,17.50677 l -130.52479,0.0161 -25.71678,11.46218 c -36.33135,16.19319 -47.55178,21.64563 -47.55178,23.10727 0,0.72164 49.88257,26.11996 115.1099,58.60962 63.31045,31.53486 114.93979,57.50622 114.73188,57.71415 -0.52234,0.52233 -75.23743,3.23406 -106.59532,3.8688 -20.61191,0.41721 -26.39101,0.25306 -29.11334,-0.82696 z"
     id="path35" />
  <path
     style="fill:#ffffff;fill-opacity:1;stroke-width:1.09207;stroke-dasharray:none"
     d="m 921.92227,574.50316 c -15.21172,-0.29194 -27.16777,-0.62971 -26.56912,-0.75062 2.28195,-0.46083 15.9084,-9.95568 21.31627,-14.85309 18.09495,-16.38689 20.24745,-21.007 47.64735,-102.27226 7.19228,-21.33161 13.46663,-39.51302 13.94303,-40.40313 0.77212,-1.44269 4.42492,-1.68467 33.6449,-2.22876 18.0284,-0.3357 35.7819,-0.85512 39.4523,-1.15425 l 6.6736,-0.54389 -0.6531,2.7396 c -0.3592,1.50679 -5.7082,18.46081 -11.8866,37.67561 -17.5814,54.67704 -21.6719,67.68828 -21.6719,68.93446 0,0.64072 1.9849,1.43102 4.4388,1.76738 7.6674,1.05093 203.9342,0.73472 213.1712,-0.34344 11.9745,-1.39771 18.5587,-4.10633 24.5454,-10.09747 6.041,-6.04548 8.0171,-10.18222 16.9648,-35.51459 27.4621,-77.74913 28.4774,-82.76065 17.7937,-87.83043 -5.5821,-2.64882 -27.3488,-3.12851 -178.5422,-3.93459 L 988.14082,384.979 987.72158,370.32346 c -0.40485,-14.15097 -0.5394,-14.94776 -3.9093,-23.14319 -1.95263,-4.74861 -3.08775,-8.73631 -2.57678,-9.05211 0.50235,-0.31045 47.2994,-1.01238 103.9936,-1.55983 110.9559,-1.07142 225.438,-0.54775 248.1617,1.13517 31.2992,2.31801 45.7808,6.76263 55.1491,16.92601 4.923,5.34083 6.5327,8.48202 7.7662,15.15471 1.8421,9.96442 0.3014,15.34499 -26.5251,92.6326 -19.1134,55.06613 -22.1745,62.78707 -28.7304,72.46792 -16.0388,23.68341 -42.9107,37.16796 -78.9772,39.6314 -14.1079,0.96361 -289.81292,0.95308 -340.15112,-0.013 z"
     id="path36" />
  <path
     style="fill:#ffffff;fill-opacity:1;stroke-width:1.09207;stroke-dasharray:none"
     d="m 188.26624,511.80045 c 2.60709,-0.66108 122.89424,-20.56504 154.7859,-25.61249 46.68494,-7.38875 119.11112,-18.15041 195.94567,-29.11517 l 68.81746,-9.82066 5.90677,2.59744 c 9.71268,4.27103 85.96846,43.40897 85.96846,44.12292 0,0.75902 -8.63014,1.0889 -113.54201,4.34007 -42.43268,1.31497 -82.82744,2.63899 -89.76611,2.94226 -6.93868,0.30328 -67.20329,2.49099 -133.92135,4.86159 -66.71806,2.3706 -132.12737,4.753 -145.35402,5.29424 -24.02631,0.98315 -31.58358,1.0853 -28.84077,0.3898 z"
     id="path37" />
  <path
     style="fill:#ffffff;fill-opacity:1;stroke-width:1.09207;stroke-dasharray:none"
     d="m 1261.5778,689.49344 v -30.83968 l 45.3684,0.54216 c 49.7737,0.59481 51.3322,0.76756 59.3556,6.57963 5.7568,4.17025 6.8934,7.52457 6.7953,20.05495 -0.1542,19.69973 -1.5033,24.28509 -8.5586,29.08813 -1.7185,1.16992 -5.3903,2.56934 -8.1595,3.10984 -2.7693,0.54049 -25.2323,1.28016 -49.9181,1.64369 l -44.8831,0.66097 z m 76.5974,19.2626 c 9.8362,-0.52888 12.4107,-0.9948 14.9516,-2.70573 l 3.0694,-2.06684 0.2688,-13.70732 c 0.2611,-13.31808 0.2015,-13.78551 -2.099,-16.46054 l -2.3676,-2.75322 -16.8248,-0.63079 c -9.2535,-0.34693 -26.1447,-0.67445 -37.536,-0.72783 l -20.7112,-0.097 0.3319,18.68106 c 0.1826,10.27458 0.6852,19.22693 1.117,19.89411 0.8819,1.36266 38.4306,1.72318 59.7999,0.57415 z"
     id="path38" />
  <path
     style="fill:#ffffff;fill-opacity:1;stroke-width:1.09207;stroke-dasharray:none"
     d="m 1000.5283,705.71625 c 0,-7.95026 -0.2855,-19.76399 -0.63438,-26.25272 l -0.63435,-11.7977 h -20.2302 -20.2302 v -3.88177 -3.88179 h 47.55183 47.5518 v 2.85188 c 0,2.62962 -0.3215,2.8909 -4.1244,3.35267 -2.2685,0.27544 -11.326,0.7568 -20.128,1.06968 -8.802,0.31288 -16.4442,1.00883 -16.9828,1.54654 -0.5812,0.5803 -1.1764,11.11495 -1.4644,25.91962 l -0.4852,24.94195 -5.0948,0.29333 -5.0949,0.29333 z"
     id="path39" />
  <path
     style="fill:#ffffff;fill-opacity:1;stroke-width:1.09207;stroke-dasharray:none"
     d="m 821.5917,719.27806 c -0.2691,-0.43548 10.00875,-13.86401 22.83975,-29.84118 l 23.32905,-29.04938 7.92892,-0.27706 7.92893,-0.27707 21.88087,26.96429 c 22.245,27.41295 25.1571,31.17709 25.1571,32.51766 0,0.88151 -7.8783,1.02198 -10.07347,0.17961 -0.82403,-0.3162 -3.93548,-3.59145 -6.91433,-7.27833 l -5.41612,-6.70343 h -32.30438 -32.30437 l -6.53993,7.27833 c -6.24465,6.94969 -6.73147,7.27834 -10.78132,7.27834 -2.33273,0 -4.46153,-0.3563 -4.7307,-0.79178 z m 78.4251,-22.38483 c 0.63232,-1.02307 -0.80055,-2.93748 -13.37393,-17.86904 -5.3016,-6.2959 -10.22572,-11.31795 -10.94242,-11.16011 -1.41825,0.31231 -25.59105,27.79029 -25.59105,29.09012 0,1.07921 49.2399,1.01906 49.9074,-0.061 z"
     id="path40" />
  <path
     style="fill:#ffffff;fill-opacity:1;stroke-width:1.09207;stroke-dasharray:none"
     d="m 693.86783,690.10736 v -31.17553 h 5.33745 5.33744 v 27.17245 27.17245 h 35.42123 35.42122 v 3.39655 3.39656 h -37.72602 c -20.74932,0 -39.09072,0.27293 -40.75868,0.60652 l -3.03264,0.60653 z"
     id="path41" />
  <path
     style="fill:#ffffff;fill-opacity:1;stroke-width:1.09207;stroke-dasharray:none"
     d="m 557.2688,719.13761 c -9.45469,-1.08896 -15.69376,-4.24462 -18.0882,-9.14883 -1.60308,-3.28336 -1.9042,-6.77919 -2.31964,-26.92984 l -0.47743,-23.15667 h 5.3266 5.32659 l 0.69342,23.04807 c 0.65116,21.64341 0.81891,23.18178 2.75251,25.24246 3.70766,3.9513 8.38711,4.5987 33.23973,4.5987 35.13902,0 36.9639,-0.79155 38.38031,-16.64777 0.4694,-5.25482 0.86904,-15.7772 0.88807,-23.38306 l 0.0346,-13.82884 h 5.43563 5.43564 l -0.36934,24.01851 c -0.30902,20.09635 -0.6339,24.51 -1.98947,27.02833 -4.06461,7.55109 -11.05121,9.13007 -42.47802,9.60016 -13.61048,0.20359 -27.91644,0.005 -31.79102,-0.44122 z"
     id="path42" />
  <path
     style="fill:#ffffff;fill-opacity:1;stroke-width:1.09207;stroke-dasharray:none"
     d="m 358.09403,690.03677 v -30.1345 h 6.92492 6.92493 l 22.28111,22.80546 c 12.25461,12.54299 22.84016,22.80544 23.52344,22.80544 0.68329,0 11.17204,-10.26245 23.30835,-22.80544 l 22.06599,-22.80546 h 6.68275 6.68274 v 30.08379 30.08378 h -5.33744 -5.33744 l -0.008,-18.68106 c -0.009,-19.12214 -0.67024,-28.87073 -1.9594,-28.87073 -0.39987,0 -10.02411,9.82575 -21.38722,21.83501 -19.53519,20.64603 -20.85162,21.835 -24.17574,21.835 -3.29369,0 -4.91765,-1.40695 -25.73241,-22.29372 -12.21927,-12.26154 -22.45967,-22.05186 -22.75644,-21.75626 -0.29677,0.2956 -0.75794,11.092 -1.02481,23.99199 l -0.48522,23.45454 -5.09483,0.29333 -5.09483,0.29333 z"
     id="path43" />
  <path
     style="fill:#ffffff;fill-opacity:1;stroke-width:1.09207;stroke-dasharray:none"
     d="m 286.28113,691.99012 c 0,-15.89611 0.41065,-29.1598 0.94643,-30.569 0.82346,-2.16588 1.51691,-2.48929 5.33744,-2.48929 h 4.39103 v 30.56901 30.569 h -5.33745 -5.33745 z"
     id="path44" />
  <path
     style="fill:#ffffff;fill-opacity:1;stroke-width:1.09207;stroke-dasharray:none"
     d="m 142.87127,717.5887 c -1.26231,-0.88416 -2.15682,-2.52888 -2.15682,-3.96573 v -2.45504 l 15.28451,0.71718 c 24.36057,1.14305 49.69513,0.96488 54.30936,-0.38193 2.24887,-0.65641 4.7599,-2.15151 5.58006,-3.32245 2.03063,-2.89913 1.91571,-9.70454 -0.20709,-12.26263 -1.62441,-1.95751 -3.00684,-2.09096 -31.78206,-3.06806 -16.54608,-0.56184 -31.8042,-1.4752 -33.90693,-2.0297 -2.10274,-0.5545 -5.26882,-2.45383 -7.03572,-4.22074 -2.96356,-2.96355 -3.21257,-3.69139 -3.21257,-9.39003 0,-8.31158 2.11832,-12.22563 8.31521,-15.36411 l 4.78579,-2.42382 34.64428,-0.002 c 21.81839,-10e-4 34.9963,0.35697 35.59516,0.96815 0.523,0.53374 1.24749,2.17137 1.60999,3.63916 l 0.65909,2.66873 -31.88726,0.0232 c -17.53799,0.0127 -33.63406,0.42789 -35.76904,0.92256 -2.13498,0.49467 -4.646,1.84273 -5.58005,2.99569 -2.3099,2.85125 -2.26855,9.79837 0.071,11.91557 2.31754,2.09734 5.2852,2.37976 38.01902,3.61819 29.26585,1.10722 31.43676,1.48386 35.8929,6.2272 1.83351,1.95168 2.184,3.48512 2.3013,10.06843 0.13129,7.36932 -0.008,7.91943 -2.73378,10.76682 -5.18905,5.42132 -8.72311,5.8664 -46.58073,5.8664 -29.25516,0 -34.36291,-0.21306 -36.21554,-1.5107 z"
     id="path45" />
</svg>
