<?xml version="1.0" encoding="UTF-8" standalone="no"?>
<svg
   version="1.0"
   width="1320pt"
   height="370pt"
   viewBox="0 0 1320 370"
   preserveAspectRatio="xMidYMid"
   id="svg3"
   sodipodi:docname="LOGO2026.svg"
   inkscape:export-filename="LOGO2026_bezNapisu_black_mniejsze.svg"
   inkscape:export-xdpi="96"
   inkscape:export-ydpi="96"
   xmlns:inkscape="http://www.inkscape.org/namespaces/inkscape"
   xmlns:sodipodi="http://sodipodi.sourceforge.net/DTD/sodipodi-0.dtd"
   xmlns="http://www.w3.org/2000/svg"
   xmlns:svg="http://www.w3.org/2000/svg">
  <defs
     id="defs3" />
  <sodipodi:namedview
     id="namedview3"
     pagecolor="#ffffff"
     bordercolor="#000000"
     borderopacity="0.25"
     inkscape:showpageshadow="2"
     inkscape:pageopacity="0.0"
     inkscape:pagecheckerboard="0"
     inkscape:deskcolor="#d1d1d1"
     inkscape:document-units="pt">
    <inkscape:page
       x="0"
       y="0"
       width="1320"
       height="370"
       id="page2"
       margin="0"
       bleed="0" />
  </sodipodi:namedview>
  <path
     style="fill:#00aceb;fill-opacity:0;stroke-width:0.949995;stroke-dasharray:none"
     d="M 7.7635562,517.82267 V 5.8226672 H 775.55251 1543.3415 V 517.82267 1029.8226 H 775.55251 7.7635562 Z M 305.23429,724.96529 c 0.29019,-1.45095 0.52761,-15.88656 0.52761,-32.07914 v -29.44106 h -5.38385 c -3.61053,0 -5.71019,0.39321 -6.37463,1.19381 -1.54049,1.85619 -2.03226,16.61138 -1.34462,40.34461 l 0.62874,21.70001 5.18194,0.29727 c 2.85008,0.1635 5.41939,0.37047 5.70958,0.45993 0.29018,0.0895 0.76504,-1.02448 1.05523,-2.47543 z m 72.30449,0.47266 c 0.45307,-1.19166 0.84181,-11.91594 0.86447,-23.84831 l 0.0412,-21.68288 21.376,21.73783 21.37601,21.73785 4.54159,-0.016 4.54159,-0.016 20.6826,-21.67209 20.68261,-21.67209 0.6991,23.161 c 0.38451,12.73856 0.7644,23.2061 0.84419,23.2612 0.0798,0.0551 3.08919,0.3127 6.68754,0.57243 l 6.54246,0.47223 v -31.59194 -31.59196 h -8.33436 -8.33437 l -3.60576,4.0099 c -1.98317,2.20543 -12.00353,12.5015 -22.26746,22.88013 l -18.66168,18.87024 -22.39584,-22.88013 -22.39584,-22.88014 h -8.33238 -8.33239 l 0.5485,7.72738 c 0.30168,4.25006 0.54851,18.28767 0.54851,31.19467 v 23.4673 l 5.27617,0.29971 c 2.9019,0.16485 5.57049,0.37292 5.93022,0.46238 0.35971,0.0895 1.02451,-0.81178 1.47732,-2.00277 z m 369.94448,1.32724 36.08907,-0.006 v -4.10335 -4.10335 l -4.43205,-0.53234 c -2.43757,-0.2928 -18.01282,-0.53565 -34.61168,-0.53969 l -30.17972,-0.008 V 690.4591 663.44509 h -3.25893 c -1.7924,0 -5.02142,0.24158 -7.17559,0.53684 l -3.91667,0.53684 v 31.66438 31.66437 l 5.69826,-0.53817 c 3.13405,-0.29598 21.93834,-0.54086 41.78731,-0.54416 z m 91.1846,0.0696 c 1.11187,-0.42274 4.61497,-3.84171 7.78455,-7.59769 l 5.76292,-6.82908 h 31.42253 31.42245 l 3.42502,4.43199 c 1.88378,2.43759 4.71833,5.68229 6.29918,7.21043 2.85982,2.76472 2.91082,2.77723 10.30935,2.53256 l 7.4352,-0.24588 -7.08923,-8.90172 c -3.8991,-4.89595 -15.2232,-18.85672 -25.1646,-31.02391 l -18.07537,-22.12218 -8.51655,0.007 -8.51663,0.007 -3.90202,4.84717 c -35.85368,44.53814 -44.63865,55.65798 -44.63873,56.50271 -7e-5,0.89169 1.99463,1.33291 8.17583,1.80849 1.01445,0.078 2.75422,-0.20398 3.8661,-0.62671 z m 181.36864,-21.97476 c 0.05,-10.93846 0.3354,-22.16743 0.6332,-24.95324 l 0.5415,-5.06513 17.3059,-0.60541 c 9.5182,-0.33297 18.9204,-0.83111 20.8936,-1.10696 l 3.5878,-0.50156 v -4.1692 -4.16922 h -48.9629 -48.96289 v 5.06513 5.06512 h 20.6826 20.68259 v 26.13126 26.13126 l 5.6983,0.24961 c 4.1569,0.1821 5.9837,-0.0794 6.7535,-0.96697 0.7739,-0.89227 1.0796,-6.51807 1.1468,-21.10469 z m 154.3948,21.91453 c 20.5717,-0.55818 28.498,-1.06987 31.6801,-2.04513 4.5824,-1.40443 8.9979,-5.286 10.4776,-9.21066 2.3667,-6.27779 -0.1696,-15.3819 -5.0607,-18.16453 -1.361,-0.77434 -2.477,-1.62136 -2.4799,-1.88227 0,-0.26091 1.0759,-1.27382 2.3975,-2.2509 5.2538,-3.88434 6.6923,-12.10265 3.2954,-18.82686 -2.0455,-4.04916 -5.7908,-7.01849 -10.6641,-8.45477 -5.9961,-1.7672 -80.01,-3.22324 -90.8495,-1.78722 l -4.2209,0.55918 -0.2497,5.69827 -0.2496,5.69827 h 42.9342 42.9342 l 2.2685,2.36771 c 2.6696,2.78655 2.8725,5.14101 0.6767,7.8528 -1.53,1.88945 -2.2094,1.98866 -17.5169,2.55792 -8.7589,0.32572 -22.8581,0.62291 -31.3317,0.6604 l -15.4064,0.0682 v 5.90931 5.90932 h 30.4463 c 30.175,0 32.9934,0.23273 34.7543,2.86998 1.1694,1.75135 0.6454,5.34506 -1.1036,7.56852 l -1.7496,2.22432 -41.0929,0.0841 c -22.6011,0.0463 -42.0426,0.34713 -43.2034,0.66855 -1.9695,0.54533 -2.127,0.99096 -2.3584,6.66935 l -0.2481,6.08497 19.2423,-0.0422 c 10.5832,-0.0232 31.5885,-0.3772 46.6783,-0.78664 z m -958.15331,-0.77989 c 15.35983,-1.0385 20.22687,-4.13516 21.54333,-13.70697 1.45887,-10.60733 -2.00499,-17.41096 -10.02537,-19.69152 -3.06828,-0.87245 -12.98247,-1.50956 -33.78985,-2.17145 -16.19611,-0.5152 -30.30957,-1.26449 -31.36325,-1.6651 -1.1335,-0.43096 -2.32169,-1.9583 -2.90985,-3.74041 -0.84282,-2.55379 -0.75908,-3.4929 0.5504,-6.17272 2.38503,-4.88089 4.33012,-5.12515 41.43234,-5.20322 l 32.29019,-0.0679 v -4.14674 -4.14673 l -3.46691,-0.58573 c -1.9068,-0.32216 -17.76698,-0.61388 -35.24485,-0.64829 -40.04011,-0.0788 -43.23725,0.49904 -47.3178,8.55206 -5.5795,11.01122 -1.14775,23.15701 9.26429,25.38999 2.41077,0.51702 17.53514,1.34739 33.6097,1.84526 l 29.22647,0.90522 1.89942,2.08204 c 2.44951,2.685 2.54505,7.69291 0.20354,10.66966 -2.46215,3.13012 -7.90244,3.98532 -25.14863,3.95328 -12.66728,-0.0236 -42.29026,-1.18304 -47.86612,-1.87361 -1.4081,-0.17439 -1.72963,0.35146 -1.93691,3.16765 -0.42212,5.73545 0.92473,6.66275 10.51701,7.24094 12.46298,0.75124 47.50695,0.75981 58.53285,0.0143 z m 404.36603,-0.10126 c 8.92648,-0.93111 16.04533,-3.8244 18.8015,-7.64143 2.66036,-3.68435 3.10639,-8.03111 3.12725,-30.47618 0.0236,-25.36605 0.36653,-24.33071 -8.05995,-24.33071 h -5.42692 l -0.0367,20.04947 c -0.0203,11.0272 -0.35701,21.7072 -0.74841,23.73333 -1.5425,7.98492 -6.7846,9.89102 -29.60559,10.76498 -22.36749,0.8566 -37.94819,-1.51455 -40.33649,-6.13862 -0.44223,-0.8562 -1.06692,-11.21561 -1.38822,-23.02091 -0.32129,-11.8053 -0.95504,-22.15715 -1.40832,-23.00412 -0.67929,-1.26927 -1.88141,-1.53994 -6.83917,-1.53994 h -6.01502 l 0.59496,23.00412 c 0.32721,12.65226 0.9117,24.64452 1.29885,26.64944 1.25653,6.5073 6.92179,10.47196 17.07375,11.94852 6.66758,0.96978 49.67658,0.97126 58.96854,0.002 z m 732.87828,0.10631 c 13.0017,-0.61573 14.3342,-0.83069 17.8233,-2.8754 5.0063,-2.93394 8.8301,-7.41957 9.6591,-11.33142 0.3711,-1.75107 0.6748,-10.08393 0.6748,-18.51747 v -15.33371 l -2.5403,-3.61439 c -1.4928,-2.12401 -4.1859,-4.46123 -6.5311,-5.66812 -8.4254,-4.33588 -10.4471,-4.5049 -59.5189,-4.97621 l -45.7972,-0.43985 v 17.69409 c 0,9.73175 0.2496,24.02286 0.5547,31.75802 l 0.5547,14.06392 35.5343,-0.047 c 19.5439,-0.0258 41.8579,-0.34646 49.5866,-0.71247 z M 220.49893,597.58171 c 48.51969,-1.38577 107.4018,-3.0843 130.84913,-3.77451 184.21085,-5.42258 272.80173,-7.78683 347.80544,-9.28197 79.35708,-1.58191 120.23088,-2.77973 131.69336,-3.85931 33.82207,-3.18549 62.2491,-15.68888 82.76955,-36.40545 10.8321,-10.93557 18.45442,-23.40404 23.7987,-38.92934 2.4804,-7.20569 2.67712,-8.60506 2.7141,-19.30047 0.0398,-11.51179 0.0353,-11.53775 -2.52825,-15.18891 -6.77355,-9.64653 -19.90133,-14.81262 -46.8168,-18.42355 -19.14548,-2.56852 -18.93413,-2.36685 -5.91938,-5.64758 23.10698,-5.82474 43.42043,-13.92591 55.8444,-22.27119 7.17773,-4.8213 18.18533,-16.03109 22.12635,-22.53269 5.40533,-8.91728 8.42408,-18.14414 8.50155,-25.98541 0.06,-6.02816 -0.23865,-7.39222 -2.7186,-12.42969 -5.4858,-11.14316 -17.93017,-17.55975 -41.11215,-21.19832 -19.7517,-3.10016 -65.50477,-4.44445 -107.21182,-3.15006 -25.9563,0.80557 -89.33166,1.98149 -178.51692,3.31235 l -37.53749,0.56015 -3.54639,9.03721 c -5.01037,12.76782 -12.97303,35.95384 -12.97303,37.77541 0,0.87437 0.81484,1.74964 1.89943,2.04029 3.16482,0.84814 87.57654,0.58298 107.00082,-0.33612 9.98252,-0.47233 32.7756,-1.99338 50.65128,-3.38011 65.94597,-5.11582 67.67795,-5.21741 80.19785,-4.70393 21.6357,0.88735 33.65955,3.69699 40.35795,9.43055 14.37682,12.30606 -3.75,29.63497 -38.24745,36.56391 -10.48343,2.10562 -52.71083,8.59036 -74.67335,11.46735 -9.0334,1.18333 -16.78594,2.5131 -17.22787,2.95503 -1.1967,1.1967 0.49092,2.8224 7.77023,7.48503 18.06874,11.57364 43.07869,21.12231 71.17796,27.17538 8.9814,1.93474 18.14295,4.29231 20.35913,5.23903 4.76925,2.03739 8.21865,5.80473 8.19285,8.94806 -0.0761,9.26633 -14.56433,22.42054 -30.8751,28.03225 -10.82925,3.72582 -19.63155,4.74757 -68.72058,7.97696 -194.85501,12.8188 -390.53557,33.10905 -546.1896,56.63476 -49.55543,7.48985 -87.25281,13.82922 -88.19085,14.83059 -0.63287,0.6756 2.12931,0.78273 10.10346,0.39184 6.03594,-0.29587 50.67238,-1.67177 99.19209,-3.05754 z M 1265.1135,581.92686 c 39.4886,-1.53394 69.085,-15.6856 85.3331,-40.80257 6.8378,-10.5702 9.5948,-17.79391 36.1191,-94.63551 20.1084,-58.25473 18.69,-53.29411 18.7066,-65.42456 0.013,-9.04826 -0.2066,-10.5811 -2.0506,-14.3512 -1.1354,-2.32152 -3.8187,-5.9383 -5.9627,-8.03731 -10.8429,-10.61526 -29.5744,-15.39171 -66.2308,-16.88847 -36.7518,-1.50066 -342.90567,-0.51588 -344.52972,1.10822 -0.30022,0.30014 0.86228,3.8234 2.5833,7.82947 4.53878,10.56523 5.73638,17.29487 5.39918,30.33929 l -0.2838,10.97444 138.44684,0.61343 c 76.1458,0.3374 145.6646,0.93417 154.4864,1.32618 17.7668,0.78949 22.4576,2.00504 25.4655,6.59893 2.7689,4.22885 1.9368,8.54515 -6.4092,33.24876 -14.8686,44.01024 -24.4747,70.97894 -26.8113,75.27197 -3.2084,5.89498 -9.1309,11.91843 -14.1939,14.43581 -11.2041,5.57086 -21.628,5.97712 -135.9027,5.29664 -52.9242,-0.31516 -96.3309,-0.67802 -96.4593,-0.80637 -0.2585,-0.25858 6.6377,-22.0309 23.6865,-74.78173 6.2275,-19.26858 11.0907,-35.26293 10.8071,-35.54299 -0.2837,-0.28006 -8.8732,-0.21366 -19.0879,0.14755 -10.2146,0.36121 -27.6893,0.69051 -38.8326,0.73177 -11.14327,0.0412 -21.08902,0.29722 -22.10152,0.56878 -1.01265,0.27156 -2.09835,1.12112 -2.41282,1.88789 -0.3144,0.76678 -6.78023,19.71417 -14.3685,42.10532 -22.60973,66.71625 -25.39065,73.85481 -33.32025,85.53173 -6.90863,10.17348 -20.36183,21.78409 -33.37283,28.80216 -3.5016,1.88872 -6.129,3.67155 -5.83875,3.96183 1.27883,1.27882 335.35177,1.72519 367.13557,0.49054 z M 242.8699,517.79817 c 16.71492,-0.67333 51.85425,-1.98876 78.08739,-2.92319 26.23314,-0.93442 57.9535,-2.07274 70.4897,-2.52957 126.54055,-4.61136 158.3106,-5.69226 235.52844,-8.01331 72.06159,-2.16607 84.84089,-2.74051 84.84089,-3.81364 0,-0.82423 -22.43725,-12.5564 -62.89201,-32.88546 l -32.07914,-16.1202 -70.91179,10.11271 c -132.03706,18.82978 -234.47124,34.69437 -343.92915,53.26635 -10.86854,1.8441 -20.08074,3.3529 -20.47155,3.3529 -0.39083,0 -0.71059,0.43389 -0.71059,0.9642 0,1.02929 3.38606,0.9523 62.04781,-1.41079 z m 296.73207,-75.96546 c 46.41369,-1.41208 56.56059,-1.94701 56.56059,-2.98182 0,-0.55575 -129.63183,-65.53508 -223.51877,-112.04115 -5.2942,-2.62245 -9.19576,-5.03561 -8.79286,-5.4385 0.8131,-0.81311 46.4127,-21.59045 62.53445,-28.49368 l 10.45693,-4.47759 163.86788,-0.20977 c 152.61217,-0.19538 185.98724,-0.57165 262.21574,-2.95623 181.40907,-5.67485 431.34177,-24.5807 552.32777,-41.78015 4.7493,-0.67517 9.205,-1.24611 9.9015,-1.26873 0.9038,-0.0294 0.7831,-0.32214 -0.4221,-1.02307 -2.0634,-1.20005 -952.03357,-1.14164 -993.18719,0.061 l -25.74773,0.75246 -8.44188,3.17215 c -16.2319,6.09935 -124.30526,52.63273 -136.70081,58.85956 -16.88967,8.48442 -24.59626,23.13751 -16.54026,31.44919 1.48648,1.53366 6.56295,4.89149 11.28104,7.46184 10.43725,5.68606 111.51431,56.28198 164.33101,82.2588 l 38.41056,18.89145 20.2605,-0.49509 c 11.14329,-0.27229 38.68492,-1.05562 61.20363,-1.74073 z"
     id="path11" />
  <path
     style="fill:#ffffff;fill-opacity:0.458824;stroke-width:0.949995;stroke-dasharray:none"
     d="m 1.8555092,364.86294 c 0.9125625,-0.43055 40.8529948,-6.8935 75.5548278,-12.22586 105.766283,-16.25232 240.474013,-32.16777 364.267103,-43.03744 15.78632,-1.38612 37.2498,-3.27601 47.69663,-4.19977 32.09776,-2.83822 93.83322,-7.48284 135.07007,-10.1619 51.19236,-3.32584 57.75269,-3.93439 68.69099,-6.37205 22.75102,-5.07015 41.28622,-20.71134 38.9979,-32.90898 -1.10835,-5.90821 -6.54338,-8.34689 -29.17943,-13.09279 -6.73237,-1.41152 -15.01005,-3.31885 -18.39472,-4.2385 -7.34903,-1.99679 -31.39928,-11.33421 -39.05408,-15.16263 -6.16722,-3.0844 -21.06066,-12.68725 -21.06066,-13.57928 0,-0.72724 2.65214,-1.20517 16.03957,-2.89042 15.80924,-1.99012 42.91237,-5.99048 63.31409,-9.34501 26.99603,-4.43879 41.24993,-9.67693 50.36453,-18.50834 9.17137,-8.88636 7.82812,-18.94881 -3.28088,-24.57819 -6.76897,-3.43008 -16.08877,-5.35085 -31.0257,-6.39428 -15.16207,-1.05914 -18.1152,-0.90904 -85.28135,4.33463 -50.43053,3.93711 -58.94871,4.26687 -110.22143,4.26687 -41.84354,0 -48.60435,-0.17054 -49.01331,-1.2363 -0.57836,-1.50718 1.38416,-7.59152 9.5706,-29.67144 l 6.29508,-16.97864 42.34899,-0.56845 c 67.23865,-0.90254 133.04812,-2.08941 172.77607,-3.11602 40.6098,-1.04939 84.97493,-0.10179 101.80628,2.1745 12.04042,1.62835 24.53482,4.81006 31.27522,7.96425 6.86618,3.21311 13.08803,9.05987 15.6,14.65971 2.9652,6.61028 2.69925,15.67315 -0.72787,24.80887 -10.23413,27.28109 -36.08498,44.72583 -83.58435,56.40458 -7.0806,1.74093 -12.87383,3.49985 -12.87383,3.9087 0,0.40887 0.28493,0.74539 0.63315,0.74783 2.71433,0.019 32.24258,4.36436 36.73043,5.40517 8.22112,1.9066 18.18585,5.99783 22.69477,9.31781 2.6451,1.94761 4.6692,4.41785 6.22403,7.59591 2.20275,4.50227 2.2872,5.14607 1.91647,14.61939 -0.43815,11.19536 -2.88817,19.91461 -9.0261,32.12236 -14.04532,27.93471 -45.79102,50.22303 -81.96585,57.54736 -17.04075,3.45024 -32.15077,4.10693 -146.4666,6.36549 -59.89035,1.18327 -180.58524,4.32524 -290.82275,7.5708 -23.44733,0.69032 -62.57543,1.82024 -86.95136,2.51094 -24.37593,0.6907 -50.01814,1.46774 -56.98269,1.72676 -6.96455,0.25903 -40.01451,1.20688 -73.444358,2.10635 -33.42984,0.89945 -64.96026,1.83133 -70.067603,2.07084 -5.1073348,0.2395 -8.9061823,0.25624 -8.4418798,0.0372 z"
     id="path12" />
  <path
     style="fill:#ffffff;fill-opacity:0.458824;stroke-width:0.949995;stroke-dasharray:none"
     d="m 1.8555092,364.86294 c 0.9125625,-0.43055 40.8529948,-6.8935 75.5548278,-12.22586 105.766283,-16.25232 240.474013,-32.16777 364.267103,-43.03744 15.78632,-1.38612 37.2498,-3.27601 47.69663,-4.19977 32.23352,-2.85022 93.92141,-7.48883 135.07007,-10.15656 21.59009,-1.39972 43.62344,-2.95176 48.96291,-3.44898 25.51433,-2.37592 39.7926,-7.78386 51.25688,-19.41367 5.40367,-5.48177 7.36095,-9.30891 7.3911,-14.45215 0.0435,-7.49046 -3.96398,-9.65252 -27.0294,-14.58104 -7.872,-1.68206 -17.08208,-3.8088 -20.46675,-4.7261 -7.33575,-1.98808 -31.38218,-11.32141 -39.05408,-15.15835 -6.35772,-3.17968 -21.06066,-12.69859 -21.06066,-13.63498 0,-0.71937 2.23879,-1.14883 12.66282,-2.42911 15.09512,-1.85399 44.29787,-6.11144 64.15832,-9.35362 29.67412,-4.84425 43.476,-9.77703 52.89705,-18.90534 9.60465,-9.30615 7.65615,-19.67739 -4.7421,-25.2414 -7.13468,-3.20184 -14.43683,-4.59512 -30.00495,-5.72501 -14.68553,-1.06583 -17.74043,-0.90997 -84.84088,4.32857 -50.43053,3.93711 -58.94871,4.26687 -110.22143,4.26687 -41.84354,0 -48.60435,-0.17054 -49.01331,-1.2363 -0.57836,-1.50718 1.38416,-7.59152 9.5706,-29.67144 l 6.29508,-16.97864 42.34899,-0.56845 c 67.23865,-0.90254 133.04812,-2.08941 172.77607,-3.11602 40.6098,-1.04939 84.97493,-0.10179 101.80628,2.1745 12.04042,1.62835 24.53482,4.81006 31.27522,7.96425 6.86618,3.21311 13.08803,9.05987 15.6,14.65971 2.9652,6.61028 2.69925,15.67315 -0.72787,24.80887 -10.23413,27.28109 -36.08498,44.72583 -83.58435,56.40458 -7.0806,1.74093 -12.87383,3.49985 -12.87383,3.9087 0,0.40887 0.28493,0.74539 0.63315,0.74783 2.71433,0.019 32.24258,4.36436 36.73043,5.40517 8.22112,1.9066 18.18585,5.99783 22.69477,9.31781 2.6451,1.94761 4.6692,4.41785 6.22403,7.59591 2.20275,4.50227 2.2872,5.14607 1.91647,14.61939 -0.43815,11.19536 -2.88817,19.91461 -9.0261,32.12236 -14.04532,27.93471 -45.79102,50.22303 -81.96585,57.54736 -17.04075,3.45024 -32.15077,4.10693 -146.4666,6.36549 -59.89035,1.18327 -180.58524,4.32524 -290.82275,7.5708 -23.44733,0.69032 -62.57543,1.82024 -86.95136,2.51094 -24.37593,0.6907 -50.01814,1.46774 -56.98269,1.72676 -6.96455,0.25903 -40.01451,1.20688 -73.444358,2.10635 -33.42984,0.89945 -64.96026,1.83133 -70.067603,2.07084 -5.1073348,0.2395 -8.9061823,0.25624 -8.4418798,0.0372 z"
     id="path13" />
  <path
     style="fill:#14aceb;fill-opacity:0.458824;stroke-width:0.949995;stroke-dasharray:none"
     d="m 3.9659792,364.47455 c 4.6326375,-1.17118 74.7035998,-12.15187 110.5942708,-17.33101 98.54214,-14.21997 217.18906,-27.88026 322.68528,-37.15204 18.22387,-1.60166 41.68171,-3.66892 52.12854,-4.59394 30.22606,-2.67637 92.95274,-7.42015 128.73866,-9.73602 18.10783,-1.17184 38.43162,-2.53565 45.16407,-3.03069 33.37808,-2.45434 48.17355,-7.24565 60.73898,-19.6695 5.9637,-5.89649 8.00812,-9.71938 8.03925,-15.03284 0.0427,-7.36657 -4.16295,-9.72038 -25.33785,-14.17958 -6.94515,-1.46257 -16.09335,-3.56505 -20.32935,-4.67217 -8.4429,-2.20663 -32.27333,-11.30777 -40.88303,-15.61374 -6.35772,-3.17968 -21.06066,-12.69859 -21.06066,-13.63498 0,-0.71937 2.23879,-1.14883 12.66282,-2.42911 15.09512,-1.85399 44.29787,-6.11144 64.15832,-9.35362 29.67412,-4.84425 43.476,-9.77703 52.89705,-18.90534 9.60465,-9.30615 7.65615,-19.67739 -4.7421,-25.2414 -7.13468,-3.20184 -14.43683,-4.59512 -30.00495,-5.72501 -14.68553,-1.06583 -17.74043,-0.90997 -84.84088,4.32857 -50.43053,3.93711 -58.94871,4.26687 -110.22143,4.26687 -41.84354,0 -48.60435,-0.17054 -49.01331,-1.2363 -0.57209,-1.49083 1.31142,-7.34541 9.54556,-29.67102 l 6.26192,-16.9782 42.3781,-0.56888 c 67.27169,-0.90304 133.07316,-2.08974 172.80516,-3.11645 40.6098,-1.04939 84.97493,-0.10179 101.80628,2.1745 12.04042,1.62835 24.53482,4.81006 31.27522,7.96425 6.86618,3.21311 13.08803,9.05987 15.6,14.65971 2.9652,6.61028 2.69925,15.67315 -0.72787,24.80887 -10.23413,27.28109 -36.08498,44.72583 -83.58435,56.40458 -7.0806,1.74093 -12.87383,3.49985 -12.87383,3.9087 0,0.40887 0.28493,0.74539 0.63315,0.74783 2.71433,0.019 32.24258,4.36436 36.73043,5.40517 8.22112,1.9066 18.18585,5.99783 22.69477,9.31781 2.6451,1.94761 4.6692,4.41785 6.22403,7.59591 2.20275,4.50227 2.2872,5.14607 1.91647,14.61939 -0.43747,11.17798 -2.88825,19.91473 -8.99137,32.0533 -14.097,28.03755 -45.74745,50.27624 -82.00058,57.61642 -17.03287,3.44864 -32.25022,4.11064 -146.04451,6.35329 -61.01241,1.20242 -160.84622,3.77146 -262.12035,6.74516 -23.67948,0.6953 -75.34378,2.21213 -114.80957,3.37074 -39.46579,1.15861 -98.91772,2.85814 -132.115421,3.77674 -33.197692,0.9186 -64.538167,1.85712 -69.64551,2.08559 -6.2820223,0.28103 -8.3302348,0.17377 -6.3314098,-0.33156 z"
     id="path14" />
  <path
     style="fill:#14aceb;fill-opacity:0.458824;stroke-width:0.949995;stroke-dasharray:none"
     d="m 9.4532042,363.99469 c 2.3778678,-0.8767 81.4207948,-13.06548 119.8746958,-18.48523 150.75264,-21.24728 315.84802,-37.80832 501.44765,-50.30119 51.83063,-3.48877 60.13583,-4.54535 73.25288,-9.31921 23.93745,-8.71188 36.74287,-30.03462 22.25062,-37.05019 -2.05402,-0.99434 -12.03637,-3.71947 -22.18297,-6.05582 -19.99703,-4.60455 -27.30833,-6.88869 -45.53843,-14.22683 -15.06571,-6.06437 -35.24854,-17.92865 -32.32079,-18.99946 0.63907,-0.23373 11.03893,-1.76991 23.11079,-3.41376 49.29488,-6.71249 75.7656,-11.62318 88.34078,-16.38846 10.47577,-3.96973 21.2037,-13.19343 22.33042,-19.19943 0.99713,-5.3151 -0.15412,-8.86373 -4.08765,-12.60003 -11.8032,-11.21141 -36.8874,-12.5865 -115.86958,-6.35185 -38.5282,3.04132 -51.27173,3.7081 -82.30833,4.30669 -20.1972,0.38953 -46.88409,0.49254 -59.30421,0.22892 -20.94462,-0.44456 -22.58202,-0.58872 -22.58202,-1.98813 0,-1.40286 4.82976,-15.60047 12.21745,-35.91449 l 3.11454,-8.5641 15.33812,-0.49314 c 8.43597,-0.27123 44.58924,-0.90336 80.3406,-1.40472 35.75136,-0.50137 78.86826,-1.26095 95.81533,-1.68796 61.23593,-1.54296 108.18555,-0.74731 127.8945,2.1674 10.69725,1.58201 22.75658,4.79786 28.95443,7.7213 6.96555,3.28555 14.01577,10.60979 15.7125,16.32318 2.5281,8.51291 1.2324,17.34337 -4.16798,28.4064 -11.2095,22.96336 -33.55327,37.19534 -77.39287,49.29566 -8.4564,2.33408 -15.52418,4.39265 -15.70613,4.57459 -1.07017,1.07019 1.38743,1.96442 6.7794,2.46672 3.37905,0.31479 12.4119,1.64421 20.07293,2.95425 21.76687,3.72217 33.1431,8.85369 37.9893,17.13597 l 2.62027,4.47811 -0.31755,10.97444 c -0.27802,9.60731 -0.64912,11.94588 -2.97922,18.77229 -5.16615,15.13529 -11.41665,25.03893 -23.3493,36.99558 -19.85678,19.89672 -47.03288,32.46337 -77.2776,35.73432 -12.66473,1.36968 -45.42585,2.52021 -111.01074,3.89856 -98.58231,2.07183 -157.64537,3.58753 -295.88788,7.59322 -39.69794,1.15028 -112.06595,3.23146 -160.81781,4.62483 -48.75186,1.39337 -100.221428,2.91652 -114.376831,3.38476 -26.493202,0.87637 -31.4347423,0.94342 -29.9793148,0.40681 z"
     id="path15" />
  <path
     style="fill:#000000;fill-opacity:1;stroke-width:0.949995;stroke-dasharray:none"
     d="M 325.6016,198.93347 C 315.38692,193.85424 272.27002,172.4439 229.78627,151.35496 138.2197,105.9013 132.18096,102.69005 129.55539,98.054599 c -2.39879,-4.23507 -2.38233,-6.52686 0.0846,-11.7753 3.05544,-6.500542 10.86566,-13.352235 20.15505,-17.681475 10.70276,-4.98792 115.22126,-49.973167 127.35863,-54.815745 5.39058,-2.15073 12.7926,-4.6755295 16.44894,-5.610667 6.6054,-1.689375 9.31738,-1.7036325 424.1116,-2.2293 392.33919,-0.4972125 597.39319,0.033675 586.72339,1.5189525 -68.3817,9.5192025 -183.327,20.6215575 -295.4658,28.5385125 -66.3401,4.683577 -88.92177,6.043297 -154.9085,9.327532 -122.39325,6.091658 -214.94024,7.810508 -401.41141,7.4553 l -129.58285,-0.246847 -12.17739,5.29566 c -20.41469,8.87787 -60.57304,27.218985 -62.19754,28.40685 -1.35808,0.993052 3.16176,3.426322 40.2213,21.653208 73.62564,36.21109 191.59468,95.29827 191.59468,95.96407 0,0.58617 -119.36457,4.58067 -131.27123,4.39296 -4.6796,-0.0738 -6.4787,-0.78276 -23.63726,-9.31484 z"
     id="path17" />
  <path
     style="fill:#000000;fill-opacity:1;stroke-width:0.949995;stroke-dasharray:none"
     d="M 137.76978,272.88475 C 238.588,255.9189 302.1783,246.14625 431.75294,227.70501 l 70.69545,-10.06148 8.23613,3.80337 c 4.52987,2.09186 25.88246,12.80268 47.4502,23.80182 38.58498,19.6776 39.16056,20.00836 35.87799,20.61784 -1.83485,0.34067 -36.38605,1.5818 -76.78044,2.75805 -69.54714,2.02516 -96.15866,2.90615 -178.54576,5.91085 -19.26858,0.70273 -45.67056,1.65127 -58.67106,2.10784 -57.45438,2.01782 -98.40895,3.51237 -138.86892,5.06775 -23.91162,0.91923 -49.553836,1.85047 -56.982691,2.06945 l -13.507005,0.39813 z"
     id="path18" />
  <path
     style="fill:#000000;fill-opacity:1;stroke-width:0.949995;stroke-dasharray:none"
     d="m 886.56448,346.73354 c -54.5556,-0.31564 -99.37283,-0.63971 -99.5937,-0.72016 -0.22095,-0.0805 2.43825,-1.76881 5.90932,-3.7519 9.3609,-5.34815 15.65655,-10.20859 23.19473,-17.90706 13.2486,-13.53045 16.91085,-21.87365 39.84082,-90.76432 8.73158,-26.23315 16.25543,-47.97572 16.71975,-48.31684 0.46433,-0.34111 9.20168,-0.6507 19.4163,-0.68797 10.2147,-0.0373 28.06928,-0.3745 39.67688,-0.7494 11.6076,-0.3749 21.22642,-0.57668 21.3753,-0.4484 0.1488,0.12828 -4.10108,13.66068 -9.44415,30.072 -14.46278,44.42223 -25.89428,80.31671 -25.65225,80.54712 0.11775,0.11213 43.33095,0.47069 96.02942,0.7968 117.965,0.73002 127.7123,0.30147 139.538,-6.13487 5.1982,-2.82926 10.4808,-8.78614 13.8675,-15.63799 1.4276,-2.88795 9.54,-25.38472 18.0275,-49.9928 14.3558,-41.6217 15.4363,-45.17348 15.4933,-50.92958 0.059,-5.9318 -0.051,-6.28777 -2.6474,-8.60987 -5.9573,-5.32722 -2.6821,-5.13735 -101.9706,-5.91145 -49.6804,-0.38734 -118.3054,-0.7298 -152.49977,-0.76105 l -62.1717,-0.0568 0.10042,-12.45178 c 0.11228,-13.91035 -0.85267,-18.86564 -5.73315,-29.44064 l -2.77575,-6.01443 5.1723,-0.52614 c 9.25335,-0.94128 227.38665,-2.32805 283.33225,-1.80126 65.0057,0.61209 83.5553,1.87974 101.3026,6.92277 21.2884,6.04929 31.6065,20.88114 27.9138,40.12503 -1.4774,7.69893 -2.4776,10.76427 -20.3215,62.2796 -27.1285,78.31993 -27.6738,79.7333 -35.0315,90.79123 -11.5109,17.29971 -29.8582,29.49989 -53.3467,35.47318 -18.3174,4.65825 -19.164,4.69589 -111.2669,4.94774 -46.8947,0.12822 -129.89945,-0.0251 -184.45512,-0.34076 z"
     id="path19" />
  <path
     style="fill:#48bef0;fill-opacity:1;stroke-width:1.09207;stroke-dasharray:none"
     d="m 18.522092,362.97508 c 4.019812,-0.85536 45.021127,-7.26053 80.463247,-12.56987 145.578421,-21.80809 310.871621,-39.0109 513.850381,-53.47874 30.15657,-2.14949 58.97878,-4.35542 64.04931,-4.90206 30.1758,-3.25314 50.97217,-14.84543 55.27072,-30.80896 1.36275,-5.06107 -0.5094,-10.07374 -4.5411,-12.15862 -1.5387,-0.79572 -12.59985,-3.93016 -24.58012,-6.96541 -22.77255,-5.7695 -38.98343,-11.28657 -53.9658,-18.36626 -9.78958,-4.62588 -23.6915,-13.25711 -22.16156,-13.75932 0.53375,-0.17522 16.25495,-2.53169 34.93601,-5.23662 62.51047,-9.05124 78.07717,-13.00506 89.81602,-22.81257 6.51255,-5.44109 8.6841,-9.18552 8.6841,-14.97424 0,-4.50544 -0.35475,-5.28397 -4.12575,-9.05497 -10.4658,-10.46584 -37.26667,-12.5965 -99.71182,-7.92706 -10.94175,0.81819 -28.84647,2.14024 -39.78823,2.9379 -35.31459,2.57442 -132.85907,3.86842 -139.46624,1.85011 -0.88974,-0.27179 -0.92418,-1.14211 -0.14073,-3.55771 2.73196,-8.42337 13.67325,-39.35234 14.25289,-40.29021 0.63134,-1.02154 109.08533,-3.32562 226.76553,-4.81758 65.82383,-0.83452 94.37325,1.13046 114.41625,7.87494 8.84985,2.97801 13.2057,5.85255 18.25245,12.04533 7.72215,9.47577 6.79388,22.76322 -2.72497,39.00466 -11.62163,19.82927 -32.87378,32.6168 -73.40528,44.16833 -15.01852,4.28028 -18.25815,5.56332 -17.06355,6.75791 0.29025,0.29024 6.59325,1.40636 14.00678,2.48025 30.3009,4.38931 43.74292,9.29014 50.0199,18.23675 l 3.54585,5.05385 -0.48908,9.91494 c -0.62812,12.73272 -2.30917,19.46028 -7.60717,30.44318 -13.61505,28.22464 -44.2578,50.81194 -80.02748,58.9897 -14.15842,3.23692 -39.00195,4.53461 -121.79082,6.36167 -84.52648,1.86541 -129.35734,2.99494 -232.90668,5.86825 -105.88926,2.93824 -325.552728,9.20376 -352.756593,10.06178 -9.75264,0.3076 -13.64751,0.17773 -11.076465,-0.36935 z"
     id="path29" />
  <path
     style="fill:#000000;fill-opacity:0;stroke-width:1.09207;stroke-dasharray:none"
     d="M 342.56692,206.34181 C 336.8812,204.08614 167.54389,119.8808 150.50441,110.83604 133.6834,101.90725 129.61315,98.819247 128.60297,94.219917 c -1.1823,-5.38296 5.43512,-14.95491 14.74093,-21.322463 5.99719,-4.10361 129.31687,-57.273862 144.65769,-62.3703 l 9.43966,-3.1359895 319.27625,-0.708 c 321.6785,-0.713325 665.8877,-0.3086775 673.9738,0.7923075 4.1161,0.5604375 3.8373,0.6695175 -4.8523,1.8986025 C 1238.6713,16.045647 1114.1915,27.858507 1017.0259,34.883847 825.99875,48.695637 707.81255,52.358989 452.22715,52.390609 l -130.52478,0.01612 -25.71678,11.462183 c -36.33136,16.19319 -47.55179,21.64563 -47.55179,23.107267 0,0.721635 49.88257,26.119961 115.1099,58.609621 63.31045,31.53485 114.93979,57.50623 114.73188,57.71415 -0.52234,0.52233 -75.23742,3.23406 -106.59532,3.8688 -20.61191,0.41721 -26.39101,0.25306 -29.11334,-0.82697 z"
     id="path32" />
  <path
     style="fill:#000000;fill-opacity:0;stroke-width:1.09207;stroke-dasharray:none"
     d="M 342.56692,206.34181 C 336.8812,204.08614 167.54389,119.8808 150.50441,110.83604 133.6834,101.90725 129.61315,98.819247 128.60297,94.219917 c -1.1823,-5.38296 5.43512,-14.95491 14.74093,-21.322463 5.99719,-4.10361 129.31687,-57.273862 144.65769,-62.3703 l 9.43966,-3.1359895 319.27625,-0.708 c 321.6785,-0.713325 665.8877,-0.3086775 673.9738,0.7923075 4.1161,0.5604375 3.8373,0.6695175 -4.8523,1.8986025 C 1238.6713,16.045647 1114.1915,27.858507 1017.0259,34.883847 825.99875,48.695637 707.81255,52.358989 452.22715,52.390609 l -130.52478,0.01612 -25.71678,11.462183 c -36.33136,16.19319 -47.55179,21.64563 -47.55179,23.107267 0,0.721635 49.88257,26.119961 115.1099,58.609621 63.31045,31.53485 114.93979,57.50623 114.73188,57.71415 -0.52234,0.52233 -75.23742,3.23406 -106.59532,3.8688 -20.61191,0.41721 -26.39101,0.25306 -29.11334,-0.82697 z"
     id="path33" />
  <path
     style="fill:#000000;fill-opacity:0;stroke-width:1.09207;stroke-dasharray:none"
     d="M 342.56692,206.34181 C 336.8812,204.08614 167.54389,119.8808 150.50441,110.83604 133.6834,101.90725 129.61315,98.819247 128.60297,94.219917 c -1.1823,-5.38296 5.43512,-14.95491 14.74093,-21.322463 5.99719,-4.10361 129.31687,-57.273862 144.65769,-62.3703 l 9.43966,-3.1359895 319.27625,-0.708 c 321.6785,-0.713325 665.8877,-0.3086775 673.9738,0.7923075 4.1161,0.5604375 3.8373,0.6695175 -4.8523,1.8986025 C 1238.6713,16.045647 1114.1915,27.858507 1017.0259,34.883847 825.99875,48.695637 707.81255,52.358989 452.22715,52.390609 l -130.52478,0.01612 -25.71678,11.462183 c -36.33136,16.19319 -47.55179,21.64563 -47.55179,23.107267 0,0.721635 49.88257,26.119961 115.1099,58.609621 63.31045,31.53485 114.93979,57.50623 114.73188,57.71415 -0.52234,0.52233 -75.23742,3.23406 -106.59532,3.8688 -20.61191,0.41721 -26.39101,0.25306 -29.11334,-0.82697 z"
     id="path34" />
  <path
     style="fill:#ffffff;fill-opacity:1;stroke-width:1.09207;stroke-dasharray:none"
     d="M 342.56692,206.34181 C 336.8812,204.08614 167.54389,119.8808 150.50441,110.83604 133.6834,101.90725 129.61315,98.819247 128.60297,94.219917 c -1.1823,-5.38296 5.43512,-14.95491 14.74093,-21.322463 5.99719,-4.10361 129.31687,-57.273862 144.65769,-62.3703 l 9.43966,-3.1359895 319.27625,-0.708 c 321.6785,-0.713325 665.8877,-0.3086775 673.9738,0.7923075 4.1161,0.5604375 3.8373,0.6695175 -4.8523,1.8986025 C 1238.6713,16.045647 1114.1915,27.858507 1017.0259,34.883847 825.99875,48.695637 707.81255,52.358989 452.22715,52.390609 l -130.52478,0.01612 -25.71678,11.462183 c -36.33136,16.19319 -47.55179,21.64563 -47.55179,23.107267 0,0.721635 49.88257,26.119961 115.1099,58.609621 63.31045,31.53485 114.93979,57.50623 114.73188,57.71415 -0.52234,0.52233 -75.23742,3.23406 -106.59532,3.8688 -20.61191,0.41721 -26.39101,0.25306 -29.11334,-0.82697 z"
     id="path35" />
  <path
     style="fill:#ffffff;fill-opacity:0;stroke-width:1.12533;stroke-dasharray:none"
     d="m 816.14383,345.47825 c -15.21173,-0.29194 -27.16778,-0.62971 -26.56913,-0.75061 2.28195,-0.46083 15.9084,-9.95568 21.31628,-14.85309 18.09495,-16.3869 20.24745,-21.00701 47.64735,-102.27226 7.19227,-21.33161 13.46662,-39.51302 13.94302,-40.40314 0.77213,-1.44268 4.42493,-1.68466 33.64493,-2.22876 18.02835,-0.3357 35.7819,-0.85511 39.45232,-1.15425 l 6.6735,-0.54388 -0.65302,2.7396 c -0.35918,1.50678 -5.70818,18.4608 -11.88668,37.6756 -17.58135,54.67704 -21.67185,67.68829 -21.67185,68.93447 0,0.64071 1.98488,1.43101 4.4388,1.76737 7.6674,1.05093 203.93425,0.73472 213.17115,-0.34344 11.9746,-1.39771 18.5588,-4.10632 24.5455,-10.09747 6.041,-6.04548 8.0171,-10.18221 16.9648,-35.51459 27.4621,-77.74912 28.4774,-82.76065 17.7937,-87.83042 -5.5821,-2.64883 -27.3488,-3.12851 -178.5423,-3.9346 l -134.04982,-0.71468 -0.41925,-14.65554 c -0.40485,-14.15098 -0.5394,-14.94776 -3.9093,-23.14319 -1.95263,-4.74861 -3.08775,-8.73631 -2.57678,-9.05211 0.50235,-0.31046 47.29943,-1.01238 103.99358,-1.55984 110.95597,-1.07142 225.43807,-0.54775 248.16177,1.13517 31.2991,2.31802 45.7807,6.76263 55.1491,16.92602 4.923,5.34083 6.5327,8.48202 7.7662,15.15471 1.8421,9.96441 0.3014,15.34498 -26.5252,92.63259 -19.1133,55.06614 -22.1744,62.78708 -28.7304,72.46793 -16.0387,23.6834 -42.9106,37.16795 -78.9771,39.63139 -14.1079,0.96361 -289.81297,0.95309 -340.15117,-0.013 z"
     id="path36" />
  <path
     style="fill:#ffffff;fill-opacity:1;stroke-width:1.09207;stroke-dasharray:none"
     d="m 82.487784,282.77554 c 2.60709,-0.66108 122.894246,-20.56503 154.785906,-25.61248 46.68494,-7.38875 119.11112,-18.15041 195.94567,-29.11517 l 68.81746,-9.82067 5.90678,2.59745 c 9.71267,4.27103 85.96845,43.40897 85.96845,44.12292 0,0.75902 -8.63014,1.0889 -113.54201,4.34007 -42.43268,1.31496 -82.82743,2.63898 -89.76611,2.94225 -6.93868,0.30328 -67.20329,2.49099 -133.92135,4.86159 -66.71806,2.3706 -132.12737,4.75301 -145.35402,5.29425 -24.026316,0.98315 -31.583586,1.08529 -28.840776,0.38979 z"
     id="path37" />
  <path
     style="fill:#ffffff;fill-opacity:0;stroke-width:1.09207;stroke-dasharray:none"
     d="m 816.14385,345.47825 c -15.21173,-0.29194 -27.16785,-0.62971 -26.56913,-0.75062 2.28195,-0.46082 15.9084,-9.95567 21.31628,-14.85309 18.09495,-16.38689 20.24737,-21.007 47.64727,-102.27226 7.19235,-21.33161 13.4667,-39.51302 13.9431,-40.40314 0.77205,-1.44268 4.42493,-1.68466 33.64493,-2.22876 18.02835,-0.3357 35.78182,-0.85511 39.45225,-1.15425 l 6.6735,-0.54388 -0.65303,2.73961 c -0.3591,1.50678 -5.7081,18.4608 -11.8866,37.6756 -17.58135,54.67704 -21.67192,67.68828 -21.67192,68.93446 0,0.64072 1.98487,1.43102 4.43887,1.76737 7.6674,1.05094 203.93413,0.73473 213.17113,-0.34344 11.9745,-1.3977 18.5588,-4.10631 24.5455,-10.09746 6.0409,-6.04548 8.017,-10.18221 16.9648,-35.5146 27.4621,-77.74911 28.4774,-82.76064 17.7936,-87.83041 -5.582,-2.64884 -27.3487,-3.12851 -178.5423,-3.9346 l -134.04978,-0.71468 -0.41924,-14.65555 c -0.40478,-14.15097 -0.53933,-14.94776 -3.9093,-23.14318 -1.95255,-4.74861 -3.08768,-8.73631 -2.5767,-9.05211 0.50234,-0.31046 47.29942,-1.01238 103.99357,-1.55984 110.95595,-1.07143 225.43795,-0.54775 248.16165,1.13517 31.2992,2.31802 45.7808,6.76262 55.1492,16.92602 4.923,5.34083 6.5327,8.48201 7.7662,15.1547 1.842,9.96442 0.3013,15.34499 -26.5252,92.6326 -19.1134,55.06614 -22.1744,62.78708 -28.7304,72.46792 -16.0388,23.68341 -42.9107,37.16796 -78.9771,39.6314 -14.1079,0.9636 -289.81302,0.95309 -340.15115,-0.013 z"
     id="path64" />
  <path
     style="fill:#ffffff;fill-opacity:0;stroke-width:1.09207;stroke-dasharray:none"
     d="m 816.14385,345.47825 c -15.21173,-0.29194 -27.16785,-0.62971 -26.56913,-0.75062 2.28195,-0.46082 15.9084,-9.95567 21.31628,-14.85309 18.09495,-16.38689 20.24737,-21.007 47.64727,-102.27226 7.19235,-21.33161 13.4667,-39.51302 13.9431,-40.40314 0.77205,-1.44268 4.42493,-1.68466 33.64493,-2.22876 18.02835,-0.3357 35.78182,-0.85511 39.45225,-1.15425 l 6.6735,-0.54388 -0.65303,2.73961 c -0.3591,1.50678 -5.7081,18.4608 -11.8866,37.6756 -17.58135,54.67704 -21.67192,67.68828 -21.67192,68.93446 0,0.64072 1.98487,1.43102 4.43887,1.76737 7.6674,1.05094 203.93413,0.73473 213.17113,-0.34344 11.9745,-1.3977 18.5588,-4.10631 24.5455,-10.09746 6.0409,-6.04548 8.017,-10.18221 16.9648,-35.5146 27.4621,-77.74911 28.4774,-82.76064 17.7936,-87.83041 -5.582,-2.64884 -27.3487,-3.12851 -178.5423,-3.9346 l -134.04978,-0.71468 -0.41924,-14.65555 c -0.40478,-14.15097 -0.53933,-14.94776 -3.9093,-23.14318 -1.95255,-4.74861 -3.08768,-8.73631 -2.5767,-9.05211 0.50234,-0.31046 47.29942,-1.01238 103.99357,-1.55984 110.95595,-1.07143 225.43795,-0.54775 248.16165,1.13517 31.2992,2.31802 45.7808,6.76262 55.1492,16.92602 4.923,5.34083 6.5327,8.48201 7.7662,15.1547 1.842,9.96442 0.3013,15.34499 -26.5252,92.6326 -19.1134,55.06614 -22.1744,62.78708 -28.7304,72.46792 -16.0388,23.68341 -42.9107,37.16796 -78.9771,39.6314 -14.1079,0.9636 -289.81302,0.95309 -340.15115,-0.013 z"
     id="path65" />
  <path
     style="fill:#ffffff;fill-opacity:0;stroke-width:1.09207;stroke-dasharray:none"
     d="m 816.14385,345.47825 c -15.21173,-0.29194 -27.16785,-0.62971 -26.56913,-0.75062 2.28195,-0.46082 15.9084,-9.95567 21.31628,-14.85309 18.09495,-16.38689 20.24737,-21.007 47.64727,-102.27226 7.19235,-21.33161 13.4667,-39.51302 13.9431,-40.40314 0.77205,-1.44268 4.42493,-1.68466 33.64493,-2.22876 18.02835,-0.3357 35.78182,-0.85511 39.45225,-1.15425 l 6.6735,-0.54388 -0.65303,2.73961 c -0.3591,1.50678 -5.7081,18.4608 -11.8866,37.6756 -17.58135,54.67704 -21.67192,67.68828 -21.67192,68.93446 0,0.64072 1.98487,1.43102 4.43887,1.76737 7.6674,1.05094 203.93413,0.73473 213.17113,-0.34344 11.9745,-1.3977 18.5588,-4.10631 24.5455,-10.09746 6.0409,-6.04548 8.017,-10.18221 16.9648,-35.5146 27.4621,-77.74911 28.4774,-82.76064 17.7936,-87.83041 -5.582,-2.64884 -27.3487,-3.12851 -178.5423,-3.9346 l -134.04978,-0.71468 -0.41924,-14.65555 c -0.40478,-14.15097 -0.53933,-14.94776 -3.9093,-23.14318 -1.95255,-4.74861 -3.08768,-8.73631 -2.5767,-9.05211 0.50234,-0.31046 47.29942,-1.01238 103.99357,-1.55984 110.95595,-1.07143 225.43795,-0.54775 248.16165,1.13517 31.2992,2.31802 45.7808,6.76262 55.1492,16.92602 4.923,5.34083 6.5327,8.48201 7.7662,15.1547 1.842,9.96442 0.3013,15.34499 -26.5252,92.6326 -19.1134,55.06614 -22.1744,62.78708 -28.7304,72.46792 -16.0388,23.68341 -42.9107,37.16796 -78.9771,39.6314 -14.1079,0.9636 -289.81302,0.95309 -340.15115,-0.013 z"
     id="path66" />
  <path
     style="fill:#ffffff;fill-opacity:0;stroke-width:1.09207;stroke-dasharray:none"
     d="m 816.14385,345.47825 c -15.21173,-0.29194 -27.16785,-0.62971 -26.56913,-0.75062 2.28195,-0.46082 15.9084,-9.95567 21.31628,-14.85309 18.09495,-16.38689 20.24737,-21.007 47.64727,-102.27226 7.19235,-21.33161 13.4667,-39.51302 13.9431,-40.40314 0.77205,-1.44268 4.42493,-1.68466 33.64493,-2.22876 18.02835,-0.3357 35.78182,-0.85511 39.45225,-1.15425 l 6.6735,-0.54388 -0.65303,2.73961 c -0.3591,1.50678 -5.7081,18.4608 -11.8866,37.6756 -17.58135,54.67704 -21.67192,67.68828 -21.67192,68.93446 0,0.64072 1.98487,1.43102 4.43887,1.76737 7.6674,1.05094 203.93413,0.73473 213.17113,-0.34344 11.9745,-1.3977 18.5588,-4.10631 24.5455,-10.09746 6.0409,-6.04548 8.017,-10.18221 16.9648,-35.5146 27.4621,-77.74911 28.4774,-82.76064 17.7936,-87.83041 -5.582,-2.64884 -27.3487,-3.12851 -178.5423,-3.9346 l -134.04978,-0.71468 -0.41924,-14.65555 c -0.40478,-14.15097 -0.53933,-14.94776 -3.9093,-23.14318 -1.95255,-4.74861 -3.08768,-8.73631 -2.5767,-9.05211 0.50234,-0.31046 47.29942,-1.01238 103.99357,-1.55984 110.95595,-1.07143 225.43795,-0.54775 248.16165,1.13517 31.2992,2.31802 45.7808,6.76262 55.1492,16.92602 4.923,5.34083 6.5327,8.48201 7.7662,15.1547 1.842,9.96442 0.3013,15.34499 -26.5252,92.6326 -19.1134,55.06614 -22.1744,62.78708 -28.7304,72.46792 -16.0388,23.68341 -42.9107,37.16796 -78.9771,39.6314 -14.1079,0.9636 -289.81302,0.95309 -340.15115,-0.013 z"
     id="path67" />
  <path
     style="fill:#ffffff;fill-opacity:0;stroke-width:1.09207;stroke-dasharray:none"
     d="M 255.07855,161.73388 C 130.04236,99.060045 130.03957,99.0585 130.03957,92.486632 c 0,-3.503272 4.76103,-10.923345 9.53247,-14.856375 1.93221,-1.592692 8.76598,-5.470913 15.18615,-8.618271 23.37922,-11.461184 110.57451,-48.741355 133.09862,-56.90604 l 11.97944,-4.34239 480.62822,0.1086218 c 264.34553,0.059745 484.77683,0.387267 489.84743,0.727833 l 9.2192,0.619212 -19.4089,2.2624502 C 1148.3387,24.512027 996.3963,36.685711 858.84338,43.632298 753.00195,48.977419 713.20712,49.744565 453.38031,51.448634 l -134.22386,0.880304 -21.04727,9.386786 c -32.32436,14.416213 -48.6531,22.419148 -49.32726,24.175941 -0.33744,0.87936 -0.008,2.187097 0.73224,2.90607 0.74016,0.718972 51.55693,26.559585 112.92615,57.423585 l 111.58039,56.11636 -8.71327,0.6217 c -7.7214,0.55093 -48.86043,1.84666 -102.50954,3.2287 l -18.10157,0.4663 z"
     id="path68" />
  <path
     style="fill:#ffffff;fill-opacity:0;stroke-width:1.09207;stroke-dasharray:none"
     d="M 255.07855,161.73388 C 130.04236,99.060045 130.03957,99.0585 130.03957,92.486632 c 0,-3.503272 4.76103,-10.923345 9.53247,-14.856375 1.93221,-1.592692 8.76598,-5.470913 15.18615,-8.618271 23.37922,-11.461184 110.57451,-48.741355 133.09862,-56.90604 l 11.97944,-4.34239 480.62822,0.1086218 c 264.34553,0.059745 484.77683,0.387267 489.84743,0.727833 l 9.2192,0.619212 -19.4089,2.2624502 C 1148.3387,24.512027 996.3963,36.685711 858.84338,43.632298 753.00195,48.977419 713.20712,49.744565 453.38031,51.448634 l -134.22386,0.880304 -21.04727,9.386786 c -32.32436,14.416213 -48.6531,22.419148 -49.32726,24.175941 -0.33744,0.87936 -0.008,2.187097 0.73224,2.90607 0.74016,0.718972 51.55693,26.559585 112.92615,57.423585 l 111.58039,56.11636 -8.71327,0.6217 c -7.7214,0.55093 -48.86043,1.84666 -102.50954,3.2287 l -18.10157,0.4663 z"
     id="path69" />
  <path
     style="fill:#ffffff;fill-opacity:0;stroke-width:1.09207;stroke-dasharray:none"
     d="m 103.35234,280.87401 c 3.45355,-1.42945 137.5552,-23.33061 207.67513,-33.91701 60.82644,-9.18331 184.55895,-26.66609 188.72637,-26.66609 3.20914,0 11.92498,4.00917 46.62646,21.44755 23.47374,11.79615 42.67952,21.7727 42.67952,22.17009 0,0.86194 -4.82036,1.05485 -134.89179,5.39829 -55.77629,1.86253 -125.2116,4.2607 -154.30067,5.32928 -29.08908,1.06857 -71.23063,2.60282 -93.6479,3.40944 -22.41727,0.80662 -52.11287,1.89715 -65.99023,2.42339 -25.80518,0.97855 -38.60205,1.11912 -36.87689,0.40506 z"
     id="path70" />
  <path
     style="fill:#ffffff;fill-opacity:0;stroke-width:1.09207;stroke-dasharray:none"
     d="m 103.35234,280.87401 c 3.45355,-1.42945 137.5552,-23.33061 207.67513,-33.91701 60.82644,-9.18331 184.55895,-26.66609 188.72637,-26.66609 3.20914,0 11.92498,4.00917 46.62646,21.44755 23.47374,11.79615 42.67952,21.7727 42.67952,22.17009 0,0.86194 -4.82036,1.05485 -134.89179,5.39829 -55.77629,1.86253 -125.2116,4.2607 -154.30067,5.32928 -29.08908,1.06857 -71.23063,2.60282 -93.6479,3.40944 -22.41727,0.80662 -52.11287,1.89715 -65.99023,2.42339 -25.80518,0.97855 -38.60205,1.11912 -36.87689,0.40506 z"
     id="path71" />
  <path
     style="fill:#ffffff;fill-opacity:0;stroke-width:1.09207;stroke-dasharray:none"
     d="m 816.14385,345.47825 c -15.21173,-0.29194 -27.16785,-0.62971 -26.56913,-0.75062 2.28195,-0.46082 15.9084,-9.95567 21.31628,-14.85309 18.09495,-16.38689 20.24737,-21.007 47.64727,-102.27226 7.19235,-21.33161 13.4667,-39.51302 13.9431,-40.40314 0.77205,-1.44268 4.42493,-1.68466 33.64493,-2.22876 18.02835,-0.3357 35.78182,-0.85511 39.45225,-1.15425 l 6.6735,-0.54388 -0.65303,2.73961 c -0.3591,1.50678 -5.7081,18.4608 -11.8866,37.6756 -17.58135,54.67704 -21.67192,67.68828 -21.67192,68.93446 0,0.64072 1.98487,1.43102 4.43887,1.76737 7.6674,1.05094 203.93413,0.73473 213.17113,-0.34344 11.9745,-1.3977 18.5588,-4.10631 24.5455,-10.09746 6.0409,-6.04548 8.017,-10.18221 16.9648,-35.5146 27.4621,-77.74911 28.4774,-82.76064 17.7936,-87.83041 -5.582,-2.64884 -27.3487,-3.12851 -178.5423,-3.9346 l -134.04978,-0.71468 -0.41924,-14.65555 c -0.40478,-14.15097 -0.53933,-14.94776 -3.9093,-23.14318 -1.95255,-4.74861 -3.08768,-8.73631 -2.5767,-9.05211 0.50234,-0.31046 47.29942,-1.01238 103.99357,-1.55984 110.95595,-1.07143 225.43795,-0.54775 248.16165,1.13517 31.2992,2.31802 45.7808,6.76262 55.1492,16.92602 4.923,5.34083 6.5327,8.48201 7.7662,15.1547 1.842,9.96442 0.3013,15.34499 -26.5252,92.6326 -19.1134,55.06614 -22.1744,62.78708 -28.7304,72.46792 -16.0388,23.68341 -42.9107,37.16796 -78.9771,39.6314 -14.1079,0.9636 -289.81302,0.95309 -340.15115,-0.013 z"
     id="path72" />
  <path
     style="fill:#ffffff;fill-opacity:0;stroke-width:1.09207;stroke-dasharray:none"
     d="m 816.14385,345.47825 c -15.21173,-0.29194 -27.16785,-0.62971 -26.56913,-0.75062 2.28195,-0.46082 15.9084,-9.95567 21.31628,-14.85309 18.09495,-16.38689 20.24737,-21.007 47.64727,-102.27226 7.19235,-21.33161 13.4667,-39.51302 13.9431,-40.40314 0.77205,-1.44268 4.42493,-1.68466 33.64493,-2.22876 18.02835,-0.3357 35.78182,-0.85511 39.45225,-1.15425 l 6.6735,-0.54388 -0.65303,2.73961 c -0.3591,1.50678 -5.7081,18.4608 -11.8866,37.6756 -17.58135,54.67704 -21.67192,67.68828 -21.67192,68.93446 0,0.64072 1.98487,1.43102 4.43887,1.76737 7.6674,1.05094 203.93413,0.73473 213.17113,-0.34344 11.9745,-1.3977 18.5588,-4.10631 24.5455,-10.09746 6.0409,-6.04548 8.017,-10.18221 16.9648,-35.5146 27.4621,-77.74911 28.4774,-82.76064 17.7936,-87.83041 -5.582,-2.64884 -27.3487,-3.12851 -178.5423,-3.9346 l -134.04978,-0.71468 -0.41924,-14.65555 c -0.40478,-14.15097 -0.53933,-14.94776 -3.9093,-23.14318 -1.95255,-4.74861 -3.08768,-8.73631 -2.5767,-9.05211 0.50234,-0.31046 47.29942,-1.01238 103.99357,-1.55984 110.95595,-1.07143 225.43795,-0.54775 248.16165,1.13517 31.2992,2.31802 45.7808,6.76262 55.1492,16.92602 4.923,5.34083 6.5327,8.48201 7.7662,15.1547 1.842,9.96442 0.3013,15.34499 -26.5252,92.6326 -19.1134,55.06614 -22.1744,62.78708 -28.7304,72.46792 -16.0388,23.68341 -42.9107,37.16796 -78.9771,39.6314 -14.1079,0.9636 -289.81302,0.95309 -340.15115,-0.013 z"
     id="path73" />
  <path
     style="fill:#ffffff;fill-opacity:0;stroke-width:1.09207;stroke-dasharray:none"
     d="m 816.14385,345.47825 c -15.21173,-0.29194 -27.16785,-0.62971 -26.56913,-0.75062 2.28195,-0.46082 15.9084,-9.95567 21.31628,-14.85309 18.09495,-16.38689 20.24737,-21.007 47.64727,-102.27226 7.19235,-21.33161 13.4667,-39.51302 13.9431,-40.40314 0.77205,-1.44268 4.42493,-1.68466 33.64493,-2.22876 18.02835,-0.3357 35.78182,-0.85511 39.45225,-1.15425 l 6.6735,-0.54388 -0.65303,2.73961 c -0.3591,1.50678 -5.7081,18.4608 -11.8866,37.6756 -17.58135,54.67704 -21.67192,67.68828 -21.67192,68.93446 0,0.64072 1.98487,1.43102 4.43887,1.76737 7.6674,1.05094 203.93413,0.73473 213.17113,-0.34344 11.9745,-1.3977 18.5588,-4.10631 24.5455,-10.09746 6.0409,-6.04548 8.017,-10.18221 16.9648,-35.5146 27.4621,-77.74911 28.4774,-82.76064 17.7936,-87.83041 -5.582,-2.64884 -27.3487,-3.12851 -178.5423,-3.9346 l -134.04978,-0.71468 -0.41924,-14.65555 c -0.40478,-14.15097 -0.53933,-14.94776 -3.9093,-23.14318 -1.95255,-4.74861 -3.08768,-8.73631 -2.5767,-9.05211 0.50234,-0.31046 47.29942,-1.01238 103.99357,-1.55984 110.95595,-1.07143 225.43795,-0.54775 248.16165,1.13517 31.2992,2.31802 45.7808,6.76262 55.1492,16.92602 4.923,5.34083 6.5327,8.48201 7.7662,15.1547 1.842,9.96442 0.3013,15.34499 -26.5252,92.6326 -19.1134,55.06614 -22.1744,62.78708 -28.7304,72.46792 -16.0388,23.68341 -42.9107,37.16796 -78.9771,39.6314 -14.1079,0.9636 -289.81302,0.95309 -340.15115,-0.013 z"
     id="path74" />
  <path
     style="fill:#ffffff;fill-opacity:0;stroke-width:1.09207;stroke-dasharray:none"
     d="m 816.14385,345.47825 c -15.21173,-0.29194 -27.16785,-0.62971 -26.56913,-0.75062 2.28195,-0.46082 15.9084,-9.95567 21.31628,-14.85309 18.09495,-16.38689 20.24737,-21.007 47.64727,-102.27226 7.19235,-21.33161 13.4667,-39.51302 13.9431,-40.40314 0.77205,-1.44268 4.42493,-1.68466 33.64493,-2.22876 18.02835,-0.3357 35.78182,-0.85511 39.45225,-1.15425 l 6.6735,-0.54388 -0.65303,2.73961 c -0.3591,1.50678 -5.7081,18.4608 -11.8866,37.6756 -17.58135,54.67704 -21.67192,67.68828 -21.67192,68.93446 0,0.64072 1.98487,1.43102 4.43887,1.76737 7.6674,1.05094 203.93413,0.73473 213.17113,-0.34344 11.9745,-1.3977 18.5588,-4.10631 24.5455,-10.09746 6.0409,-6.04548 8.017,-10.18221 16.9648,-35.5146 27.4621,-77.74911 28.4774,-82.76064 17.7936,-87.83041 -5.582,-2.64884 -27.3487,-3.12851 -178.5423,-3.9346 l -134.04978,-0.71468 -0.41924,-14.65555 c -0.40478,-14.15097 -0.53933,-14.94776 -3.9093,-23.14318 -1.95255,-4.74861 -3.08768,-8.73631 -2.5767,-9.05211 0.50234,-0.31046 47.29942,-1.01238 103.99357,-1.55984 110.95595,-1.07143 225.43795,-0.54775 248.16165,1.13517 31.2992,2.31802 45.7808,6.76262 55.1492,16.92602 4.923,5.34083 6.5327,8.48201 7.7662,15.1547 1.842,9.96442 0.3013,15.34499 -26.5252,92.6326 -19.1134,55.06614 -22.1744,62.78708 -28.7304,72.46792 -16.0388,23.68341 -42.9107,37.16796 -78.9771,39.6314 -14.1079,0.9636 -289.81302,0.95309 -340.15115,-0.013 z"
     id="path75" />
  <path
     style="fill:#ffffff;fill-opacity:0;stroke-width:1.09207;stroke-dasharray:none"
     d="m 816.14385,345.47825 c -15.21173,-0.29194 -27.16785,-0.62971 -26.56913,-0.75062 2.28195,-0.46082 15.9084,-9.95567 21.31628,-14.85309 18.09495,-16.38689 20.24737,-21.007 47.64727,-102.27226 7.19235,-21.33161 13.4667,-39.51302 13.9431,-40.40314 0.77205,-1.44268 4.42493,-1.68466 33.64493,-2.22876 18.02835,-0.3357 35.78182,-0.85511 39.45225,-1.15425 l 6.6735,-0.54388 -0.65303,2.73961 c -0.3591,1.50678 -5.7081,18.4608 -11.8866,37.6756 -17.58135,54.67704 -21.67192,67.68828 -21.67192,68.93446 0,0.64072 1.98487,1.43102 4.43887,1.76737 7.6674,1.05094 203.93413,0.73473 213.17113,-0.34344 11.9745,-1.3977 18.5588,-4.10631 24.5455,-10.09746 6.0409,-6.04548 8.017,-10.18221 16.9648,-35.5146 27.4621,-77.74911 28.4774,-82.76064 17.7936,-87.83041 -5.582,-2.64884 -27.3487,-3.12851 -178.5423,-3.9346 l -134.04978,-0.71468 -0.41924,-14.65555 c -0.40478,-14.15097 -0.53933,-14.94776 -3.9093,-23.14318 -1.95255,-4.74861 -3.08768,-8.73631 -2.5767,-9.05211 0.50234,-0.31046 47.29942,-1.01238 103.99357,-1.55984 110.95595,-1.07143 225.43795,-0.54775 248.16165,1.13517 31.2992,2.31802 45.7808,6.76262 55.1492,16.92602 4.923,5.34083 6.5327,8.48201 7.7662,15.1547 1.842,9.96442 0.3013,15.34499 -26.5252,92.6326 -19.1134,55.06614 -22.1744,62.78708 -28.7304,72.46792 -16.0388,23.68341 -42.9107,37.16796 -78.9771,39.6314 -14.1079,0.9636 -289.81302,0.95309 -340.15115,-0.013 z"
     id="path76" />
  <path
     style="fill:#ffffff;fill-opacity:0;stroke-width:1.09207;stroke-dasharray:none"
     d="m 816.14385,345.47825 c -15.21173,-0.29194 -27.16785,-0.62971 -26.56913,-0.75062 2.28195,-0.46082 15.9084,-9.95567 21.31628,-14.85309 18.09495,-16.38689 20.24737,-21.007 47.64727,-102.27226 7.19235,-21.33161 13.4667,-39.51302 13.9431,-40.40314 0.77205,-1.44268 4.42493,-1.68466 33.64493,-2.22876 18.02835,-0.3357 35.78182,-0.85511 39.45225,-1.15425 l 6.6735,-0.54388 -0.65303,2.73961 c -0.3591,1.50678 -5.7081,18.4608 -11.8866,37.6756 -17.58135,54.67704 -21.67192,67.68828 -21.67192,68.93446 0,0.64072 1.98487,1.43102 4.43887,1.76737 7.6674,1.05094 203.93413,0.73473 213.17113,-0.34344 11.9745,-1.3977 18.5588,-4.10631 24.5455,-10.09746 6.0409,-6.04548 8.017,-10.18221 16.9648,-35.5146 27.4621,-77.74911 28.4774,-82.76064 17.7936,-87.83041 -5.582,-2.64884 -27.3487,-3.12851 -178.5423,-3.9346 l -134.04978,-0.71468 -0.41924,-14.65555 c -0.40478,-14.15097 -0.53933,-14.94776 -3.9093,-23.14318 -1.95255,-4.74861 -3.08768,-8.73631 -2.5767,-9.05211 0.50234,-0.31046 47.29942,-1.01238 103.99357,-1.55984 110.95595,-1.07143 225.43795,-0.54775 248.16165,1.13517 31.2992,2.31802 45.7808,6.76262 55.1492,16.92602 4.923,5.34083 6.5327,8.48201 7.7662,15.1547 1.842,9.96442 0.3013,15.34499 -26.5252,92.6326 -19.1134,55.06614 -22.1744,62.78708 -28.7304,72.46792 -16.0388,23.68341 -42.9107,37.16796 -78.9771,39.6314 -14.1079,0.9636 -289.81302,0.95309 -340.15115,-0.013 z"
     id="path77" />
  <path
     style="fill:#ffffff;fill-opacity:0;stroke-width:1.09207;stroke-dasharray:none"
     d="m 816.14385,345.47825 c -15.21173,-0.29194 -27.16785,-0.62971 -26.56913,-0.75062 2.28195,-0.46082 15.9084,-9.95567 21.31628,-14.85309 18.09495,-16.38689 20.24737,-21.007 47.64727,-102.27226 7.19235,-21.33161 13.4667,-39.51302 13.9431,-40.40314 0.77205,-1.44268 4.42493,-1.68466 33.64493,-2.22876 18.02835,-0.3357 35.78182,-0.85511 39.45225,-1.15425 l 6.6735,-0.54388 -0.65303,2.73961 c -0.3591,1.50678 -5.7081,18.4608 -11.8866,37.6756 -17.58135,54.67704 -21.67192,67.68828 -21.67192,68.93446 0,0.64072 1.98487,1.43102 4.43887,1.76737 7.6674,1.05094 203.93413,0.73473 213.17113,-0.34344 11.9745,-1.3977 18.5588,-4.10631 24.5455,-10.09746 6.0409,-6.04548 8.017,-10.18221 16.9648,-35.5146 27.4621,-77.74911 28.4774,-82.76064 17.7936,-87.83041 -5.582,-2.64884 -27.3487,-3.12851 -178.5423,-3.9346 l -134.04978,-0.71468 -0.41924,-14.65555 c -0.40478,-14.15097 -0.53933,-14.94776 -3.9093,-23.14318 -1.95255,-4.74861 -3.08768,-8.73631 -2.5767,-9.05211 0.50234,-0.31046 47.29942,-1.01238 103.99357,-1.55984 110.95595,-1.07143 225.43795,-0.54775 248.16165,1.13517 31.2992,2.31802 45.7808,6.76262 55.1492,16.92602 4.923,5.34083 6.5327,8.48201 7.7662,15.1547 1.842,9.96442 0.3013,15.34499 -26.5252,92.6326 -19.1134,55.06614 -22.1744,62.78708 -28.7304,72.46792 -16.0388,23.68341 -42.9107,37.16796 -78.9771,39.6314 -14.1079,0.9636 -289.81302,0.95309 -340.15115,-0.013 z"
     id="path78" />
  <path
     style="fill:#ffffff;fill-opacity:0;stroke-width:1.09207;stroke-dasharray:none"
     d="m 816.14385,345.47825 c -15.21173,-0.29194 -27.16785,-0.62971 -26.56913,-0.75062 2.28195,-0.46082 15.9084,-9.95567 21.31628,-14.85309 18.09495,-16.38689 20.24737,-21.007 47.64727,-102.27226 7.19235,-21.33161 13.4667,-39.51302 13.9431,-40.40314 0.77205,-1.44268 4.42493,-1.68466 33.64493,-2.22876 18.02835,-0.3357 35.78182,-0.85511 39.45225,-1.15425 l 6.6735,-0.54388 -0.65303,2.73961 c -0.3591,1.50678 -5.7081,18.4608 -11.8866,37.6756 -17.58135,54.67704 -21.67192,67.68828 -21.67192,68.93446 0,0.64072 1.98487,1.43102 4.43887,1.76737 7.6674,1.05094 203.93413,0.73473 213.17113,-0.34344 11.9745,-1.3977 18.5588,-4.10631 24.5455,-10.09746 6.0409,-6.04548 8.017,-10.18221 16.9648,-35.5146 27.4621,-77.74911 28.4774,-82.76064 17.7936,-87.83041 -5.582,-2.64884 -27.3487,-3.12851 -178.5423,-3.9346 l -134.04978,-0.71468 -0.41924,-14.65555 c -0.40478,-14.15097 -0.53933,-14.94776 -3.9093,-23.14318 -1.95255,-4.74861 -3.08768,-8.73631 -2.5767,-9.05211 0.50234,-0.31046 47.29942,-1.01238 103.99357,-1.55984 110.95595,-1.07143 225.43795,-0.54775 248.16165,1.13517 31.2992,2.31802 45.7808,6.76262 55.1492,16.92602 4.923,5.34083 6.5327,8.48201 7.7662,15.1547 1.842,9.96442 0.3013,15.34499 -26.5252,92.6326 -19.1134,55.06614 -22.1744,62.78708 -28.7304,72.46792 -16.0388,23.68341 -42.9107,37.16796 -78.9771,39.6314 -14.1079,0.9636 -289.81302,0.95309 -340.15115,-0.013 z"
     id="path79" />
  <path
     style="fill:#ffffff;fill-opacity:0;stroke-width:1.09207;stroke-dasharray:none"
     d="m 816.14385,345.47825 c -15.21173,-0.29194 -27.16785,-0.62971 -26.56913,-0.75062 2.28195,-0.46082 15.9084,-9.95567 21.31628,-14.85309 18.09495,-16.38689 20.24737,-21.007 47.64727,-102.27226 7.19235,-21.33161 13.4667,-39.51302 13.9431,-40.40314 0.77205,-1.44268 4.42493,-1.68466 33.64493,-2.22876 18.02835,-0.3357 35.78182,-0.85511 39.45225,-1.15425 l 6.6735,-0.54388 -0.65303,2.73961 c -0.3591,1.50678 -5.7081,18.4608 -11.8866,37.6756 -17.58135,54.67704 -21.67192,67.68828 -21.67192,68.93446 0,0.64072 1.98487,1.43102 4.43887,1.76737 7.6674,1.05094 203.93413,0.73473 213.17113,-0.34344 11.9745,-1.3977 18.5588,-4.10631 24.5455,-10.09746 6.0409,-6.04548 8.017,-10.18221 16.9648,-35.5146 27.4621,-77.74911 28.4774,-82.76064 17.7936,-87.83041 -5.582,-2.64884 -27.3487,-3.12851 -178.5423,-3.9346 l -134.04978,-0.71468 -0.41924,-14.65555 c -0.40478,-14.15097 -0.53933,-14.94776 -3.9093,-23.14318 -1.95255,-4.74861 -3.08768,-8.73631 -2.5767,-9.05211 0.50234,-0.31046 47.29942,-1.01238 103.99357,-1.55984 110.95595,-1.07143 225.43795,-0.54775 248.16165,1.13517 31.2992,2.31802 45.7808,6.76262 55.1492,16.92602 4.923,5.34083 6.5327,8.48201 7.7662,15.1547 1.842,9.96442 0.3013,15.34499 -26.5252,92.6326 -19.1134,55.06614 -22.1744,62.78708 -28.7304,72.46792 -16.0388,23.68341 -42.9107,37.16796 -78.9771,39.6314 -14.1079,0.9636 -289.81302,0.95309 -340.15115,-0.013 z"
     id="path80" />
  <path
     style="fill:#ffffff;fill-opacity:0;stroke-width:1.09207;stroke-dasharray:none"
     d="m 816.14385,345.47825 c -15.21173,-0.29194 -27.16785,-0.62971 -26.56913,-0.75062 2.28195,-0.46082 15.9084,-9.95567 21.31628,-14.85309 18.09495,-16.38689 20.24737,-21.007 47.64727,-102.27226 7.19235,-21.33161 13.4667,-39.51302 13.9431,-40.40314 0.77205,-1.44268 4.42493,-1.68466 33.64493,-2.22876 18.02835,-0.3357 35.78182,-0.85511 39.45225,-1.15425 l 6.6735,-0.54388 -0.65303,2.73961 c -0.3591,1.50678 -5.7081,18.4608 -11.8866,37.6756 -17.58135,54.67704 -21.67192,67.68828 -21.67192,68.93446 0,0.64072 1.98487,1.43102 4.43887,1.76737 7.6674,1.05094 203.93413,0.73473 213.17113,-0.34344 11.9745,-1.3977 18.5588,-4.10631 24.5455,-10.09746 6.0409,-6.04548 8.017,-10.18221 16.9648,-35.5146 27.4621,-77.74911 28.4774,-82.76064 17.7936,-87.83041 -5.582,-2.64884 -27.3487,-3.12851 -178.5423,-3.9346 l -134.04978,-0.71468 -0.41924,-14.65555 c -0.40478,-14.15097 -0.53933,-14.94776 -3.9093,-23.14318 -1.95255,-4.74861 -3.08768,-8.73631 -2.5767,-9.05211 0.50234,-0.31046 47.29942,-1.01238 103.99357,-1.55984 110.95595,-1.07143 225.43795,-0.54775 248.16165,1.13517 31.2992,2.31802 45.7808,6.76262 55.1492,16.92602 4.923,5.34083 6.5327,8.48201 7.7662,15.1547 1.842,9.96442 0.3013,15.34499 -26.5252,92.6326 -19.1134,55.06614 -22.1744,62.78708 -28.7304,72.46792 -16.0388,23.68341 -42.9107,37.16796 -78.9771,39.6314 -14.1079,0.9636 -289.81302,0.95309 -340.15115,-0.013 z"
     id="path81" />
  <path
     style="fill:#ffffff;fill-opacity:0;stroke-width:1.09207;stroke-dasharray:none"
     d="m 816.14385,345.47825 c -15.21173,-0.29194 -27.16785,-0.62971 -26.56913,-0.75062 2.28195,-0.46082 15.9084,-9.95567 21.31628,-14.85309 18.09495,-16.38689 20.24737,-21.007 47.64727,-102.27226 7.19235,-21.33161 13.4667,-39.51302 13.9431,-40.40314 0.77205,-1.44268 4.42493,-1.68466 33.64493,-2.22876 18.02835,-0.3357 35.78182,-0.85511 39.45225,-1.15425 l 6.6735,-0.54388 -0.65303,2.73961 c -0.3591,1.50678 -5.7081,18.4608 -11.8866,37.6756 -17.58135,54.67704 -21.67192,67.68828 -21.67192,68.93446 0,0.64072 1.98487,1.43102 4.43887,1.76737 7.6674,1.05094 203.93413,0.73473 213.17113,-0.34344 11.9745,-1.3977 18.5588,-4.10631 24.5455,-10.09746 6.0409,-6.04548 8.017,-10.18221 16.9648,-35.5146 27.4621,-77.74911 28.4774,-82.76064 17.7936,-87.83041 -5.582,-2.64884 -27.3487,-3.12851 -178.5423,-3.9346 l -134.04978,-0.71468 -0.41924,-14.65555 c -0.40478,-14.15097 -0.53933,-14.94776 -3.9093,-23.14318 -1.95255,-4.74861 -3.08768,-8.73631 -2.5767,-9.05211 0.50234,-0.31046 47.29942,-1.01238 103.99357,-1.55984 110.95595,-1.07143 225.43795,-0.54775 248.16165,1.13517 31.2992,2.31802 45.7808,6.76262 55.1492,16.92602 4.923,5.34083 6.5327,8.48201 7.7662,15.1547 1.842,9.96442 0.3013,15.34499 -26.5252,92.6326 -19.1134,55.06614 -22.1744,62.78708 -28.7304,72.46792 -16.0388,23.68341 -42.9107,37.16796 -78.9771,39.6314 -14.1079,0.9636 -289.81302,0.95309 -340.15115,-0.013 z"
     id="path82" />
  <path
     style="fill:#ffffff;fill-opacity:0;stroke-width:1.09207;stroke-dasharray:none"
     d="m 816.14385,345.47825 c -15.21173,-0.29194 -27.16785,-0.62971 -26.56913,-0.75062 2.28195,-0.46082 15.9084,-9.95567 21.31628,-14.85309 18.09495,-16.38689 20.24737,-21.007 47.64727,-102.27226 7.19235,-21.33161 13.4667,-39.51302 13.9431,-40.40314 0.77205,-1.44268 4.42493,-1.68466 33.64493,-2.22876 18.02835,-0.3357 35.78182,-0.85511 39.45225,-1.15425 l 6.6735,-0.54388 -0.65303,2.73961 c -0.3591,1.50678 -5.7081,18.4608 -11.8866,37.6756 -17.58135,54.67704 -21.67192,67.68828 -21.67192,68.93446 0,0.64072 1.98487,1.43102 4.43887,1.76737 7.6674,1.05094 203.93413,0.73473 213.17113,-0.34344 11.9745,-1.3977 18.5588,-4.10631 24.5455,-10.09746 6.0409,-6.04548 8.017,-10.18221 16.9648,-35.5146 27.4621,-77.74911 28.4774,-82.76064 17.7936,-87.83041 -5.582,-2.64884 -27.3487,-3.12851 -178.5423,-3.9346 l -134.04978,-0.71468 -0.41924,-14.65555 c -0.40478,-14.15097 -0.53933,-14.94776 -3.9093,-23.14318 -1.95255,-4.74861 -3.08768,-8.73631 -2.5767,-9.05211 0.50234,-0.31046 47.29942,-1.01238 103.99357,-1.55984 110.95595,-1.07143 225.43795,-0.54775 248.16165,1.13517 31.2992,2.31802 45.7808,6.76262 55.1492,16.92602 4.923,5.34083 6.5327,8.48201 7.7662,15.1547 1.842,9.96442 0.3013,15.34499 -26.5252,92.6326 -19.1134,55.06614 -22.1744,62.78708 -28.7304,72.46792 -16.0388,23.68341 -42.9107,37.16796 -78.9771,39.6314 -14.1079,0.9636 -289.81302,0.95309 -340.15115,-0.013 z"
     id="path83" />
  <path
     style="fill:#79ffff;fill-opacity:0;stroke-width:1.09207;stroke-dasharray:none"
     d="m 816.14385,345.47825 c -15.21173,-0.29194 -27.16785,-0.62971 -26.56913,-0.75062 2.28195,-0.46082 15.9084,-9.95567 21.31628,-14.85309 18.09495,-16.38689 20.24737,-21.007 47.64727,-102.27226 7.19235,-21.33161 13.4667,-39.51302 13.9431,-40.40314 0.77205,-1.44268 4.42493,-1.68466 33.64493,-2.22876 18.02835,-0.3357 35.78182,-0.85511 39.45225,-1.15425 l 6.6735,-0.54388 -0.65303,2.73961 c -0.3591,1.50678 -5.7081,18.4608 -11.8866,37.6756 -17.58135,54.67704 -21.67192,67.68828 -21.67192,68.93446 0,0.64072 1.98487,1.43102 4.43887,1.76737 7.6674,1.05094 203.93413,0.73473 213.17113,-0.34344 11.9745,-1.3977 18.5588,-4.10631 24.5455,-10.09746 6.0409,-6.04548 8.017,-10.18221 16.9648,-35.5146 27.4621,-77.74911 28.4774,-82.76064 17.7936,-87.83041 -5.582,-2.64884 -27.3487,-3.12851 -178.5423,-3.9346 l -134.04978,-0.71468 -0.41924,-14.65555 c -0.40478,-14.15097 -0.53933,-14.94776 -3.9093,-23.14318 -1.95255,-4.74861 -3.08768,-8.73631 -2.5767,-9.05211 0.50234,-0.31046 47.29942,-1.01238 103.99357,-1.55984 110.95595,-1.07143 225.43795,-0.54775 248.16165,1.13517 31.2992,2.31802 45.7808,6.76262 55.1492,16.92602 4.923,5.34083 6.5327,8.48201 7.7662,15.1547 1.842,9.96442 0.3013,15.34499 -26.5252,92.6326 -19.1134,55.06614 -22.1744,62.78708 -28.7304,72.46792 -16.0388,23.68341 -42.9107,37.16796 -78.9771,39.6314 -14.1079,0.9636 -289.81302,0.95309 -340.15115,-0.013 z"
     id="path84" />
  <path
     style="fill:#79ffff;fill-opacity:0;stroke-width:1.09207;stroke-dasharray:none"
     d="m 816.14385,345.47825 c -15.21173,-0.29194 -27.16785,-0.62971 -26.56913,-0.75062 2.28195,-0.46082 15.9084,-9.95567 21.31628,-14.85309 18.09495,-16.38689 20.24737,-21.007 47.64727,-102.27226 7.19235,-21.33161 13.4667,-39.51302 13.9431,-40.40314 0.77205,-1.44268 4.42493,-1.68466 33.64493,-2.22876 18.02835,-0.3357 35.78182,-0.85511 39.45225,-1.15425 l 6.6735,-0.54388 -0.65303,2.73961 c -0.3591,1.50678 -5.7081,18.4608 -11.8866,37.6756 -17.58135,54.67704 -21.67192,67.68828 -21.67192,68.93446 0,0.64072 1.98487,1.43102 4.43887,1.76737 7.6674,1.05094 203.93413,0.73473 213.17113,-0.34344 11.9745,-1.3977 18.5588,-4.10631 24.5455,-10.09746 6.0409,-6.04548 8.017,-10.18221 16.9648,-35.5146 27.4621,-77.74911 28.4774,-82.76064 17.7936,-87.83041 -5.582,-2.64884 -27.3487,-3.12851 -178.5423,-3.9346 l -134.04978,-0.71468 -0.41924,-14.65555 c -0.40478,-14.15097 -0.53933,-14.94776 -3.9093,-23.14318 -1.95255,-4.74861 -3.08768,-8.73631 -2.5767,-9.05211 0.50234,-0.31046 47.29942,-1.01238 103.99357,-1.55984 110.95595,-1.07143 225.43795,-0.54775 248.16165,1.13517 31.2992,2.31802 45.7808,6.76262 55.1492,16.92602 4.923,5.34083 6.5327,8.48201 7.7662,15.1547 1.842,9.96442 0.3013,15.34499 -26.5252,92.6326 -19.1134,55.06614 -22.1744,62.78708 -28.7304,72.46792 -16.0388,23.68341 -42.9107,37.16796 -78.9771,39.6314 -14.1079,0.9636 -289.81302,0.95309 -340.15115,-0.013 z"
     id="path85" />
  <path
     style="fill:#79ffff;fill-opacity:0;stroke-width:1.09207;stroke-dasharray:none"
     d="M 255.07855,161.73388 C 130.04236,99.060045 130.03957,99.0585 130.03957,92.486632 c 0,-3.503272 4.76103,-10.923345 9.53247,-14.856375 1.93221,-1.592692 8.76598,-5.470913 15.18615,-8.618271 23.37922,-11.461184 110.57451,-48.741355 133.09862,-56.90604 l 11.97944,-4.34239 480.62822,0.1086218 c 264.34553,0.059745 484.77683,0.387267 489.84743,0.727833 l 9.2192,0.619212 -19.4089,2.2624502 C 1148.3387,24.512027 996.3963,36.685711 858.84338,43.632298 753.00195,48.977419 713.20712,49.744565 453.38031,51.448634 l -134.22386,0.880304 -21.04727,9.386786 c -32.32436,14.416213 -48.6531,22.419148 -49.32726,24.175941 -0.33744,0.87936 -0.008,2.187097 0.73224,2.90607 0.74016,0.718972 51.55693,26.559585 112.92615,57.423585 l 111.58039,56.11636 -8.71327,0.6217 c -7.7214,0.55093 -48.86043,1.84666 -102.50954,3.2287 l -18.10157,0.4663 z"
     id="path86" />
  <path
     style="fill:#ffffff;fill-opacity:1;stroke-width:1.09207;stroke-dasharray:none"
     d="m 816.14385,345.47825 c -15.21173,-0.29194 -27.16785,-0.62971 -26.56913,-0.75062 2.28195,-0.46082 15.9084,-9.95567 21.31628,-14.85309 18.09495,-16.38689 20.24737,-21.007 47.64727,-102.27226 7.19235,-21.33161 13.4667,-39.51302 13.9431,-40.40314 0.77205,-1.44268 4.42493,-1.68466 33.64493,-2.22876 18.02835,-0.3357 35.78182,-0.85511 39.45225,-1.15425 l 6.6735,-0.54388 -0.65303,2.73961 c -0.3591,1.50678 -5.7081,18.4608 -11.8866,37.6756 -17.58135,54.67704 -21.67192,67.68828 -21.67192,68.93446 0,0.64072 1.98487,1.43102 4.43887,1.76737 7.6674,1.05094 203.93413,0.73473 213.17113,-0.34344 11.9745,-1.3977 18.5588,-4.10631 24.5455,-10.09746 6.0409,-6.04548 8.017,-10.18221 16.9648,-35.5146 27.4621,-77.74911 28.4774,-82.76064 17.7936,-87.83041 -5.582,-2.64884 -27.3487,-3.12851 -178.5423,-3.9346 l -134.04978,-0.71468 -0.41924,-14.65555 c -0.40478,-14.15097 -0.53933,-14.94776 -3.9093,-23.14318 -1.95255,-4.74861 -3.08768,-8.73631 -2.5767,-9.05211 0.50234,-0.31046 47.29942,-1.01238 103.99357,-1.55984 110.95595,-1.07143 225.43795,-0.54775 248.16165,1.13517 31.2992,2.31802 45.7808,6.76262 55.1492,16.92602 4.923,5.34083 6.5327,8.48201 7.7662,15.1547 1.842,9.96442 0.3013,15.34499 -26.5252,92.6326 -19.1134,55.06614 -22.1744,62.78708 -28.7304,72.46792 -16.0388,23.68341 -42.9107,37.16796 -78.9771,39.6314 -14.1079,0.9636 -289.81302,0.95309 -340.15115,-0.013 z"
     id="path89" />
</svg>
